<?xml version="1.0" encoding="UTF-8"?>
<svg width="247px" height="52px" viewBox="0 0 247 52" version="1.1" xmlns="http://www.w3.org/2000/svg" xmlns:xlink="http://www.w3.org/1999/xlink">
    <!-- Generator: Sketch 43.1 (39012) - http://www.bohemiancoding.com/sketch -->
    <title>by BYRAKHTAR CONSULT</title>
    <desc>Created with Sketch.</desc>
    <defs></defs>
    <g id="Desktop" stroke="none" stroke-width="1" fill="none" fill-rule="evenodd">
        <g id="Desktop-Landscape-Copy" transform="translate(-328.000000, -414.000000)" fill="#BD583E">
            <path d="M337.008,423.2 C337.008,423.728003 336.940001,424.311997 336.804,424.952 C336.667999,425.592003 336.480001,426.227997 336.24,426.86 C335.999999,427.492003 335.720002,428.087997 335.4,428.648 C335.079998,429.208003 334.744002,429.663998 334.392,430.016 C333.479995,430.928005 332.496005,431.384 331.44,431.384 C331.039998,431.384 330.636002,431.316001 330.228,431.18 C329.819998,431.043999 329.456002,430.880001 329.136,430.688 C328.815998,430.495999 328.556001,430.296001 328.356,430.088 C328.155999,429.879999 328.072,429.712001 328.104,429.584 L331.152,415.904 C331.2,415.695999 331.120001,415.576 330.912,415.544 L328.92,415.376 L328.992,414.776 L332.664,414.272 L331.32,419.888 L329.568,426.632 L329.808,426.632 C329.936001,426.391999 330.119999,426.056002 330.36,425.624 C330.600001,425.191998 330.867999,424.728002 331.164,424.232 C331.460001,423.735998 331.775998,423.236003 332.112,422.732 C332.448002,422.227997 332.783998,421.772002 333.12,421.364 C333.456002,420.955998 333.783998,420.620001 334.104,420.356 C334.424002,420.091999 334.711999,419.96 334.968,419.96 C335.320002,419.96 335.623999,420.055999 335.88,420.248 C336.136001,420.440001 336.347999,420.691998 336.516,421.004 C336.684001,421.316002 336.808,421.663998 336.888,422.048 C336.968,422.432002 337.008,422.815998 337.008,423.2 Z M335.832,423.464 C335.832,422.823997 335.720001,422.256002 335.496,421.76 C335.271999,421.263998 334.952002,420.992 334.536,420.944 C334.343999,420.944 334.084002,421.131998 333.756,421.508 C333.427998,421.884002 333.044002,422.403997 332.604,423.068 C332.163998,423.732003 331.676003,424.511996 331.14,425.408 C330.603997,426.304004 330.040003,427.271995 329.448,428.312 L329.184,429.392 C329.328001,429.536001 329.503999,429.683999 329.712,429.836 C329.920001,429.988001 330.143999,430.127999 330.384,430.256 C330.624001,430.384001 330.867999,430.488 331.116,430.568 C331.364001,430.648 331.591999,430.688 331.8,430.688 C332.088001,430.688 332.391998,430.600001 332.712,430.424 C333.032002,430.247999 333.343998,430.008002 333.648,429.704 C333.936001,429.415999 334.211999,429.020003 334.476,428.516 C334.740001,428.011997 334.971999,427.468003 335.172,426.884 C335.372001,426.299997 335.531999,425.708003 335.652,425.108 C335.772001,424.507997 335.832,423.960002 335.832,423.464 Z M355.876,421.232 C355.876,421.648002 355.772001,422.063998 355.564,422.48 C355.355999,422.896002 355.068002,423.391997 354.7,423.968 L351.052,429.728 L349.684,431.816 C349.155997,432.872005 348.692002,433.743997 348.292,434.432 C347.891998,435.120003 347.512002,435.663998 347.152,436.064 C346.791998,436.464002 346.428002,436.743999 346.06,436.904 C345.691998,437.064001 345.276002,437.144 344.812,437.144 C344.331998,437.144 343.908002,437.020001 343.54,436.772 C343.171998,436.523999 342.988,436.200002 342.988,435.8 C342.988,435.511999 343.071999,435.276001 343.24,435.092 C343.408001,434.907999 343.619999,434.816 343.876,434.816 C344.164002,434.816 344.403999,434.935999 344.596,435.176 C344.788001,435.416001 344.844,435.711998 344.764,436.064 L346.012,436.328 C346.044,436.312 346.119999,436.228001 346.24,436.076 C346.360001,435.923999 346.503999,435.728001 346.672,435.488 C346.840001,435.247999 347.023999,434.976002 347.224,434.672 C347.424001,434.367998 347.627999,434.056002 347.836,433.736 C348.316002,432.999996 348.843997,432.168005 349.42,431.24 L348.988,431.12 L348.892,421.28 L348.172,421.136 L346.3,423.032 L345.892,422.624 C346.020001,422.415999 346.187999,422.164001 346.396,421.868 C346.604001,421.571999 346.831999,421.284001 347.08,421.004 C347.328001,420.723999 347.571999,420.484001 347.812,420.284 C348.052001,420.083999 348.267999,419.984 348.46,419.984 C348.588001,419.984 348.731999,420.024 348.892,420.104 C349.052001,420.184 349.211999,420.275999 349.372,420.38 C349.532001,420.484001 349.664,420.595999 349.768,420.716 C349.872001,420.836001 349.924,420.944 349.924,421.04 L349.924,430.112 L350.116,430.112 L354.46,422.84 L354.748,422.048 C354.507999,422.016 354.264001,421.920001 354.016,421.76 C353.767999,421.599999 353.644,421.344002 353.644,420.992 C353.644,420.719999 353.739999,420.484001 353.932,420.284 C354.124001,420.083999 354.355999,419.984 354.628,419.984 C354.996002,419.984 355.295999,420.099999 355.528,420.332 C355.760001,420.564001 355.876,420.863998 355.876,421.232 Z M382.068,431 L382.068,415.16 L387.684,415.16 C391.212,415.16 392.868,416.72 392.868,419.408 C392.868,421.16 391.884,422.576 390.036,422.96 L390.036,422.984 C392.052,423.32 393.3,424.784 393.3,426.704 C393.3,429.368 391.308,431 387.66,431 L382.068,431 Z M383.436,422.384 L387.684,422.384 C390.18,422.384 391.452,421.4 391.452,419.408 C391.452,417.44 390.18,416.432 387.684,416.432 L383.436,416.432 L383.436,422.384 Z M383.436,429.728 L387.948,429.728 C390.564,429.728 391.884,428.648 391.884,426.68 C391.884,424.712 390.564,423.656 387.948,423.656 L383.436,423.656 L383.436,429.728 Z M415.192,415.16 L413.584,415.16 L408.88,423.416 L404.2,415.16 L402.568,415.16 L408.208,424.832 L408.208,431 L409.576,431 L409.576,424.832 L415.192,415.16 Z M436.292,431 L431.78,424.208 L427.268,424.208 L427.268,431 L425.9,431 L425.9,415.16 L431.804,415.16 C434.972,415.16 437.036,416.888 437.036,419.672 C437.036,422 435.62,423.584 433.34,424.04 L437.9,431 L436.292,431 Z M427.268,416.432 L427.268,422.936 L431.78,422.936 C434.276,422.936 435.596,421.784 435.596,419.672 C435.596,417.56 434.276,416.432 431.78,416.432 L427.268,416.432 Z M460.032001,431 L458.112001,426.176 L450.624001,426.176 L448.728001,431 L447.288001,431 L453.576001,415.16 L455.208001,415.16 L461.472001,431 L460.032001,431 Z M451.128001,424.904 L457.608001,424.904 L455.016001,418.304 L454.392001,416.48 L454.344001,416.48 L453.768001,418.232 L451.128001,424.904 Z M482.572001,431 L484.228001,431 L477.820001,421.568 L484.084001,415.16 L482.284001,415.16 L473.764001,423.872 L473.764001,415.16 L472.396001,415.16 L472.396001,431 L473.764001,431 L473.764001,425.72 L476.836001,422.576 L482.572001,431 Z M506.072001,415.16 L506.072001,422.312 L496.544001,422.312 L496.544001,415.16 L495.176001,415.16 L495.176001,431 L496.544001,431 L496.544001,423.584 L506.072001,423.584 L506.072001,431 L507.440001,431 L507.440001,415.16 L506.072001,415.16 Z M531.228001,415.16 L518.412001,415.16 L518.412001,416.432 L524.148001,416.432 L524.148001,431 L525.516001,431 L525.516001,416.432 L531.228001,416.432 L531.228001,415.16 Z M550.696001,431 L548.776001,426.176 L541.288001,426.176 L539.392001,431 L537.952001,431 L544.240001,415.16 L545.872001,415.16 L552.136001,431 L550.696001,431 Z M541.792001,424.904 L548.272001,424.904 L545.680001,418.304 L545.056001,416.48 L545.008001,416.48 L544.432001,418.232 L541.792001,424.904 Z M573.452001,431 L568.940001,424.208 L564.428001,424.208 L564.428001,431 L563.060001,431 L563.060001,415.16 L568.964001,415.16 C572.132001,415.16 574.196001,416.888 574.196001,419.672 C574.196001,422 572.780001,423.584 570.500001,424.04 L575.060001,431 L573.452001,431 Z M564.428001,416.432 L564.428001,422.936 L568.940001,422.936 C571.436001,422.936 572.756001,421.784 572.756001,419.672 C572.756001,417.56 571.436001,416.432 568.940001,416.432 L564.428001,416.432 Z M342.096,460.968 L340.752,460.464 C340.032,462.744 338.208,463.968 335.76,463.968 C332.232,463.968 329.952,461.352 329.952,457.08 C329.952,452.784 332.304,450.192 335.832,450.192 C338.28,450.192 339.792,451.272 340.536,453.408 L341.88,452.784 C340.944,450.24 338.904,448.92 335.736,448.92 C331.392,448.92 328.536,452.064 328.536,457.08 C328.536,462.096 331.368,465.24 335.76,465.24 C338.808,465.24 341.16,463.68 342.096,460.968 Z M359.884,448.92 C364.372,448.92 367.18,452.064 367.18,457.08 C367.18,462.096 364.372,465.24 359.884,465.24 C355.396,465.24 352.588,462.096 352.588,457.08 C352.588,452.064 355.396,448.92 359.884,448.92 Z M359.884,450.192 C356.26,450.192 354.004,452.808 354.004,457.08 C354.004,461.352 356.26,463.968 359.884,463.968 C363.508,463.968 365.764,461.352 365.764,457.08 C365.764,452.808 363.508,450.192 359.884,450.192 Z M391.376,449.16 L390.056,449.16 L390.056,461.376 L390.128,463.512 L388.808,461.136 L380.84,449.16 L379.136,449.16 L379.136,465 L380.432,465 L380.432,452.784 L380.36,450.648 L380.384,450.648 L381.68,452.976 L389.672,465 L391.376,465 L391.376,449.16 Z M409.26,448.92 C405.636,448.92 403.452,451.032 403.452,453.48 C403.452,455.856 404.964,457.104 409.356,457.848 C412.884,458.448 414.036,459.36 414.036,460.944 C414.036,462.888 412.14,463.968 409.5,463.968 C406.716,463.968 404.772,462.768 404.076,460.584 L402.9,461.52 C403.788,463.824 406.14,465.24 409.476,465.24 C413.052,465.24 415.452,463.488 415.452,460.872 C415.452,458.496 413.964,457.224 409.764,456.528 C406.02,455.88 404.892,455.016 404.892,453.336 C404.892,451.56 406.5,450.192 409.284,450.192 C411.804,450.192 413.244,451.104 414.084,453.336 L415.26,452.4 C414.204,450.072 412.188,448.92 409.26,448.92 Z M439.264,449.16 L437.896,449.16 L437.896,458.88 C437.896,462.264 436.288,463.968 433.144,463.968 C430,463.968 428.368,462.264 428.368,458.88 L428.368,449.16 L427,449.16 L427,459.192 C427,463.152 429.232,465.24 433.144,465.24 C437.056,465.24 439.264,463.152 439.264,459.192 L439.264,449.16 Z M453.404,463.728 L453.404,449.16 L452.036,449.16 L452.036,465 L462.788,465 L462.788,463.728 L453.404,463.728 Z M481.392001,449.16 L468.576001,449.16 L468.576001,450.432 L474.312001,450.432 L474.312001,465 L475.680001,465 L475.680001,450.432 L481.392001,450.432 L481.392001,449.16 Z M500.860001,465 L498.940001,460.176 L491.452001,460.176 L489.556001,465 L488.116001,465 L494.404001,449.16 L496.036001,449.16 L502.300001,465 L500.860001,465 Z M491.956001,458.904 L498.436001,458.904 L495.844001,452.304 L495.220001,450.48 L495.172001,450.48 L494.596001,452.232 L491.956001,458.904 Z M525.464001,449.16 L524.144001,449.16 L524.144001,461.376 L524.216001,463.512 L522.896001,461.136 L514.928001,449.16 L513.224001,449.16 L513.224001,465 L514.520001,465 L514.520001,452.784 L514.448001,450.648 L514.472001,450.648 L515.768001,452.976 L523.760001,465 L525.464001,465 L525.464001,449.16 Z M549.276001,449.16 L536.460001,449.16 L536.460001,450.432 L542.196001,450.432 L542.196001,465 L543.564001,465 L543.564001,450.432 L549.276001,450.432 L549.276001,449.16 Z M565.216001,448.92 C561.592001,448.92 559.408001,451.032 559.408001,453.48 C559.408001,455.856 560.920001,457.104 565.312001,457.848 C568.840001,458.448 569.992001,459.36 569.992001,460.944 C569.992001,462.888 568.096001,463.968 565.456001,463.968 C562.672001,463.968 560.728001,462.768 560.032001,460.584 L558.856001,461.52 C559.744001,463.824 562.096001,465.24 565.432001,465.24 C569.008001,465.24 571.408001,463.488 571.408001,460.872 C571.408001,458.496 569.920001,457.224 565.720001,456.528 C561.976001,455.88 560.848001,455.016 560.848001,453.336 C560.848001,451.56 562.456001,450.192 565.240001,450.192 C567.760001,450.192 569.200001,451.104 570.040001,453.336 L571.216001,452.4 C570.160001,450.072 568.144001,448.92 565.216001,448.92 Z" id="by-BYRAKHTAR-CONSULT"></path>
        </g>
    </g>
</svg>