<?xml version="1.0" encoding="UTF-8"?>
<svg width="517px" height="24px" viewBox="0 0 517 24" version="1.1" xmlns="http://www.w3.org/2000/svg" xmlns:xlink="http://www.w3.org/1999/xlink">
    <!-- Generator: Sketch 43.1 (39012) - http://www.bohemiancoding.com/sketch -->
    <title>by BYRAKHTAR CONSULT</title>
    <desc>Created with Sketch.</desc>
    <defs></defs>
    <g id="Desktop" stroke="none" stroke-width="1" fill="none" fill-rule="evenodd">
        <g id="Desktop-Landscape-Copy" transform="translate(-368.000000, -414.000000)" fill="#BD583E">
            <path d="M377.393999,423.2 C377.393999,423.728003 377.326,424.311997 377.189999,424.952 C377.053998,425.592003 376.866,426.227997 376.625999,426.86 C376.385998,427.492003 376.106001,428.087997 375.785999,428.648 C375.465997,429.208003 375.130001,429.663998 374.777999,430.016 C373.865994,430.928005 372.882004,431.384 371.825999,431.384 C371.425997,431.384 371.022001,431.316001 370.613999,431.18 C370.205997,431.043999 369.842001,430.880001 369.521999,430.688 C369.201997,430.495999 368.942,430.296001 368.741999,430.088 C368.541998,429.879999 368.457999,429.712001 368.489999,429.584 L371.537999,415.904 C371.585999,415.695999 371.506,415.576 371.297999,415.544 L369.305999,415.376 L369.377999,414.776 L373.049999,414.272 L371.705999,419.888 L369.953999,426.632 L370.193999,426.632 C370.322,426.391999 370.505998,426.056002 370.745999,425.624 C370.986,425.191998 371.253997,424.728002 371.549999,424.232 C371.846,423.735998 372.161997,423.236003 372.497999,422.732 C372.834001,422.227997 373.169997,421.772002 373.505999,421.364 C373.842001,420.955998 374.169997,420.620001 374.489999,420.356 C374.810001,420.091999 375.097998,419.96 375.353999,419.96 C375.706001,419.96 376.009998,420.055999 376.265999,420.248 C376.522,420.440001 376.733998,420.691998 376.901999,421.004 C377.07,421.316002 377.193999,421.663998 377.273999,422.048 C377.353999,422.432002 377.393999,422.815998 377.393999,423.2 Z M376.217999,423.464 C376.217999,422.823997 376.106,422.256002 375.881999,421.76 C375.657998,421.263998 375.338001,420.992 374.921999,420.944 C374.729998,420.944 374.470001,421.131998 374.141999,421.508 C373.813997,421.884002 373.430001,422.403997 372.989999,423.068 C372.549997,423.732003 372.062002,424.511996 371.525999,425.408 C370.989996,426.304004 370.426002,427.271995 369.833999,428.312 L369.569999,429.392 C369.714,429.536001 369.889998,429.683999 370.097999,429.836 C370.306,429.988001 370.529998,430.127999 370.769999,430.256 C371.01,430.384001 371.253998,430.488 371.501999,430.568 C371.75,430.648 371.977998,430.688 372.185999,430.688 C372.474,430.688 372.777997,430.600001 373.097999,430.424 C373.418001,430.247999 373.729997,430.008002 374.033999,429.704 C374.322,429.415999 374.597998,429.020003 374.861999,428.516 C375.126,428.011997 375.357998,427.468003 375.557999,426.884 C375.758,426.299997 375.917998,425.708003 376.037999,425.108 C376.158,424.507997 376.217999,423.960002 376.217999,423.464 Z M396.261999,421.232 C396.261999,421.648002 396.158,422.063998 395.949999,422.48 C395.741998,422.896002 395.454001,423.391997 395.085999,423.968 L391.437999,429.728 L390.069999,431.816 C389.541996,432.872005 389.078001,433.743997 388.677999,434.432 C388.277997,435.120003 387.898001,435.663998 387.537999,436.064 C387.177997,436.464002 386.814001,436.743999 386.445999,436.904 C386.077997,437.064001 385.662001,437.144 385.197999,437.144 C384.717997,437.144 384.294001,437.020001 383.925999,436.772 C383.557997,436.523999 383.373999,436.200002 383.373999,435.8 C383.373999,435.511999 383.457998,435.276001 383.625999,435.092 C383.794,434.907999 384.005998,434.816 384.261999,434.816 C384.55,434.816 384.789998,434.935999 384.981999,435.176 C385.174,435.416001 385.229999,435.711998 385.149999,436.064 L386.397999,436.328 C386.429999,436.312 386.505998,436.228001 386.625999,436.076 C386.746,435.923999 386.889998,435.728001 387.057999,435.488 C387.226,435.247999 387.409998,434.976002 387.609999,434.672 C387.81,434.367998 388.013998,434.056002 388.221999,433.736 C388.702001,432.999996 389.229996,432.168005 389.805999,431.24 L389.373999,431.12 L389.277999,421.28 L388.557999,421.136 L386.685999,423.032 L386.277999,422.624 C386.406,422.415999 386.573998,422.164001 386.781999,421.868 C386.99,421.571999 387.217998,421.284001 387.465999,421.004 C387.714,420.723999 387.957998,420.484001 388.197999,420.284 C388.438,420.083999 388.653998,419.984 388.845999,419.984 C388.974,419.984 389.117998,420.024 389.277999,420.104 C389.438,420.184 389.597998,420.275999 389.757999,420.38 C389.918,420.484001 390.049998,420.595999 390.153999,420.716 C390.258,420.836001 390.309999,420.944 390.309999,421.04 L390.309999,430.112 L390.501999,430.112 L394.845999,422.84 L395.133999,422.048 C394.893998,422.016 394.65,421.920001 394.401999,421.76 C394.153998,421.599999 394.029999,421.344002 394.029999,420.992 C394.029999,420.719999 394.125998,420.484001 394.317999,420.284 C394.51,420.083999 394.741998,419.984 395.013999,419.984 C395.382001,419.984 395.681998,420.099999 395.913999,420.332 C396.146,420.564001 396.261999,420.863998 396.261999,421.232 Z M422.453999,431 L422.453999,415.16 L428.069999,415.16 C431.597999,415.16 433.253999,416.72 433.253999,419.408 C433.253999,421.16 432.269999,422.576 430.421999,422.96 L430.421999,422.984 C432.437999,423.32 433.685999,424.784 433.685999,426.704 C433.685999,429.368 431.693999,431 428.045999,431 L422.453999,431 Z M423.821999,422.384 L428.069999,422.384 C430.565999,422.384 431.837999,421.4 431.837999,419.408 C431.837999,417.44 430.565999,416.432 428.069999,416.432 L423.821999,416.432 L423.821999,422.384 Z M423.821999,429.728 L428.333999,429.728 C430.949999,429.728 432.269999,428.648 432.269999,426.68 C432.269999,424.712 430.949999,423.656 428.333999,423.656 L423.821999,423.656 L423.821999,429.728 Z M455.577999,415.16 L453.969999,415.16 L449.265999,423.416 L444.585999,415.16 L442.953999,415.16 L448.593999,424.832 L448.593999,431 L449.961999,431 L449.961999,424.832 L455.577999,415.16 Z M476.677999,431 L472.165999,424.208 L467.653999,424.208 L467.653999,431 L466.285999,431 L466.285999,415.16 L472.189999,415.16 C475.357999,415.16 477.421999,416.888 477.421999,419.672 C477.421999,422 476.005999,423.584 473.725999,424.04 L478.285999,431 L476.677999,431 Z M467.653999,416.432 L467.653999,422.936 L472.165999,422.936 C474.661999,422.936 475.981999,421.784 475.981999,419.672 C475.981999,417.56 474.661999,416.432 472.165999,416.432 L467.653999,416.432 Z M500.417999,431 L498.497999,426.176 L491.009999,426.176 L489.113999,431 L487.673999,431 L493.961999,415.16 L495.593999,415.16 L501.857999,431 L500.417999,431 Z M491.513999,424.904 L497.993999,424.904 L495.401999,418.304 L494.777999,416.48 L494.729999,416.48 L494.153999,418.232 L491.513999,424.904 Z M522.958,431 L524.614,431 L518.206,421.568 L524.47,415.16 L522.67,415.16 L514.15,423.872 L514.15,415.16 L512.782,415.16 L512.782,431 L514.15,431 L514.15,425.72 L517.222,422.576 L522.958,431 Z M546.458,415.16 L546.458,422.312 L536.93,422.312 L536.93,415.16 L535.562,415.16 L535.562,431 L536.93,431 L536.93,423.584 L546.458,423.584 L546.458,431 L547.826,431 L547.826,415.16 L546.458,415.16 Z M571.614,415.16 L558.798,415.16 L558.798,416.432 L564.534,416.432 L564.534,431 L565.902,431 L565.902,416.432 L571.614,416.432 L571.614,415.16 Z M591.082,431 L589.162,426.176 L581.674,426.176 L579.778,431 L578.338,431 L584.626,415.16 L586.258,415.16 L592.522,431 L591.082,431 Z M582.178,424.904 L588.658,424.904 L586.066,418.304 L585.442,416.48 L585.394,416.48 L584.818,418.232 L582.178,424.904 Z M613.838,431 L609.326,424.208 L604.814,424.208 L604.814,431 L603.446,431 L603.446,415.16 L609.35,415.16 C612.518,415.16 614.582,416.888 614.582,419.672 C614.582,422 613.166,423.584 610.886,424.04 L615.446,431 L613.838,431 Z M604.814,416.432 L604.814,422.936 L609.326,422.936 C611.822,422.936 613.142,421.784 613.142,419.672 C613.142,417.56 611.822,416.432 609.326,416.432 L604.814,416.432 Z M654.982,426.968 L653.638,426.464 C652.918,428.744 651.094,429.968 648.646,429.968 C645.118,429.968 642.838,427.352 642.838,423.08 C642.838,418.784 645.19,416.192 648.718,416.192 C651.166,416.192 652.678,417.272 653.422,419.408 L654.766,418.784 C653.83,416.24 651.79,414.92 648.622,414.92 C644.278,414.92 641.422,418.064 641.422,423.08 C641.422,428.096 644.254,431.24 648.646,431.24 C651.694,431.24 654.046,429.68 654.982,426.968 Z M672.77,414.92 C677.258,414.92 680.066,418.064 680.066,423.08 C680.066,428.096 677.258,431.24 672.77,431.24 C668.282,431.24 665.474,428.096 665.474,423.08 C665.474,418.064 668.282,414.92 672.77,414.92 Z M672.77,416.192 C669.146,416.192 666.89,418.808 666.89,423.08 C666.89,427.352 669.146,429.968 672.77,429.968 C676.394,429.968 678.65,427.352 678.65,423.08 C678.65,418.808 676.394,416.192 672.77,416.192 Z M704.262,415.16 L702.942,415.16 L702.942,427.376 L703.014,429.512 L701.694,427.136 L693.726,415.16 L692.022,415.16 L692.022,431 L693.318,431 L693.318,418.784 L693.246,416.648 L693.27,416.648 L694.566,418.976 L702.558,431 L704.262,431 L704.262,415.16 Z M722.146,414.92 C718.522,414.92 716.338,417.032 716.338,419.48 C716.338,421.856 717.85,423.104 722.242,423.848 C725.77,424.448 726.922,425.36 726.922,426.944 C726.922,428.888 725.026,429.968 722.386,429.968 C719.602,429.968 717.658,428.768 716.962,426.584 L715.786,427.52 C716.674,429.824 719.026,431.24 722.362,431.24 C725.938,431.24 728.338,429.488 728.338,426.872 C728.338,424.496 726.85,423.224 722.65,422.528 C718.906,421.88 717.778,421.016 717.778,419.336 C717.778,417.56 719.386,416.192 722.17,416.192 C724.69,416.192 726.13,417.104 726.97,419.336 L728.146,418.4 C727.09,416.072 725.074,414.92 722.146,414.92 Z M752.150001,415.16 L750.782001,415.16 L750.782001,424.88 C750.782001,428.264 749.174001,429.968 746.030001,429.968 C742.886001,429.968 741.254001,428.264 741.254001,424.88 L741.254001,415.16 L739.886001,415.16 L739.886001,425.192 C739.886001,429.152 742.118001,431.24 746.030001,431.24 C749.942001,431.24 752.150001,429.152 752.150001,425.192 L752.150001,415.16 Z M766.290001,429.728 L766.290001,415.16 L764.922001,415.16 L764.922001,431 L775.674001,431 L775.674001,429.728 L766.290001,429.728 Z M794.278001,415.16 L781.462001,415.16 L781.462001,416.432 L787.198001,416.432 L787.198001,431 L788.566001,431 L788.566001,416.432 L794.278001,416.432 L794.278001,415.16 Z M813.746001,431 L811.826001,426.176 L804.338001,426.176 L802.442001,431 L801.002001,431 L807.290001,415.16 L808.922001,415.16 L815.186001,431 L813.746001,431 Z M804.842001,424.904 L811.322001,424.904 L808.730001,418.304 L808.106001,416.48 L808.058001,416.48 L807.482001,418.232 L804.842001,424.904 Z M838.350001,415.16 L837.030001,415.16 L837.030001,427.376 L837.102001,429.512 L835.782001,427.136 L827.814001,415.16 L826.110001,415.16 L826.110001,431 L827.406001,431 L827.406001,418.784 L827.334001,416.648 L827.358001,416.648 L828.654001,418.976 L836.646001,431 L838.350001,431 L838.350001,415.16 Z M862.162001,415.16 L849.346001,415.16 L849.346001,416.432 L855.082001,416.432 L855.082001,431 L856.450001,431 L856.450001,416.432 L862.162001,416.432 L862.162001,415.16 Z M878.102001,414.92 C874.478001,414.92 872.294001,417.032 872.294001,419.48 C872.294001,421.856 873.806001,423.104 878.198001,423.848 C881.726001,424.448 882.878001,425.36 882.878001,426.944 C882.878001,428.888 880.982001,429.968 878.342001,429.968 C875.558001,429.968 873.614001,428.768 872.918001,426.584 L871.742001,427.52 C872.630001,429.824 874.982001,431.24 878.318001,431.24 C881.894001,431.24 884.294001,429.488 884.294001,426.872 C884.294001,424.496 882.806001,423.224 878.606001,422.528 C874.862001,421.88 873.734001,421.016 873.734001,419.336 C873.734001,417.56 875.342001,416.192 878.126001,416.192 C880.646001,416.192 882.086001,417.104 882.926001,419.336 L884.102001,418.4 C883.046001,416.072 881.030001,414.92 878.102001,414.92 Z" id="by-BYRAKHTAR-CONSULT"></path>
        </g>
    </g>
</svg>