<?xml version="1.0" encoding="UTF-8"?>
<svg width="175px" height="175px" viewBox="0 0 175 175" version="1.1" xmlns="http://www.w3.org/2000/svg" xmlns:xlink="http://www.w3.org/1999/xlink">
    <!-- Generator: Sketch 43.1 (39012) - http://www.bohemiancoding.com/sketch -->
    <title>Group 7 Copy</title>
    <desc>Created with Sketch.</desc>
    <defs></defs>
    <g id="Page-2" stroke="none" stroke-width="1" fill="none" fill-rule="evenodd">
        <g id="Artboard-Copy" transform="translate(-294.000000, -1305.000000)">
            <g id="Group-7-Copy" transform="translate(295.000000, 1306.000000)">
                <circle id="Oval" stroke="#FFACA0" stroke-width="0.8" fill="#FFACA0" cx="86.5" cy="86.5" r="86.5"></circle>
                <path d="M38.6658423,80.8555556 L34.8549048,80.8555556 L34.8549048,63.6571181 L30.9174048,63.6571181 L30.9174048,60.2961806 L42.6033423,60.2961806 L42.6033423,63.6571181 L38.6658423,63.6571181 L38.6658423,80.8555556 Z M53.0487802,80.8555556 L53.0487802,71.5180556 C53.0487802,69.2211691 52.4722234,68.0727431 51.3190927,68.0727431 C50.4565883,68.0727431 49.8519069,68.5250823 49.5050302,69.4297743 C49.1581534,70.3344663 48.9847177,71.6352346 48.9847177,73.3321181 L48.9847177,80.8555556 L45.2440927,80.8555556 L45.2440927,58.9743056 L48.9847177,58.9743056 L48.9847177,63.8399306 C48.9847177,64.4680587 48.9284682,65.58836 48.8159677,67.2008681 L49.0128427,67.2008681 C49.7628464,65.6633604 50.9159599,64.8946181 52.4722177,64.8946181 C53.9065998,64.8946181 54.9894015,65.3797695 55.7206552,66.3500868 C56.4519088,67.3204042 56.8175302,68.7477336 56.8175302,70.6321181 L56.8175302,80.8555556 L53.0487802,80.8555556 Z M66.2926555,81.1368056 C64.3332707,81.1368056 62.7887549,80.4407188 61.6590617,79.0485243 C60.5293686,77.6563298 59.9645305,75.6852558 59.9645305,73.1352431 C59.9645305,70.5477301 60.4754629,68.5274378 61.497343,67.0743056 C62.5192231,65.6211733 63.9442088,64.8946181 65.772343,64.8946181 C67.4786015,64.8946181 68.8239005,65.5157056 69.8082805,66.7578993 C70.7926604,68.000093 71.284843,69.7414819 71.284843,71.9821181 L71.284843,73.9789931 L63.7614055,73.9789931 C63.7895306,75.375875 64.0754652,76.4141459 64.619218,77.0938368 C65.1629707,77.7735277 65.9129632,78.1133681 66.869218,78.1133681 C68.0879741,78.1133681 69.3348366,77.7336844 70.609843,76.9743056 L70.609843,80.0539931 C69.409837,80.7758717 67.9707889,81.1368056 66.2926555,81.1368056 Z M65.744218,67.7774306 C65.2098403,67.7774306 64.7692197,68.0610215 64.422343,68.6282118 C64.0754662,69.1954021 63.8739057,70.0742996 63.8176555,71.2649306 L67.6145305,71.2649306 C67.5957804,70.1211748 67.4223446,69.253996 67.094218,68.6633681 C66.7660913,68.0727401 66.3160958,67.7774306 65.744218,67.7774306 Z M86.2694686,72.8539931 L86.2694686,80.8555556 L82.4444686,80.8555556 L82.4444686,60.2961806 L87.4507186,60.2961806 C89.5694792,60.2961806 91.1327448,60.797738 92.1405623,61.8008681 C93.1483799,62.8039981 93.6522811,64.3367952 93.6522811,66.3993056 C93.6522811,68.9961935 92.7757274,70.8102379 91.0225936,71.8414931 L94.9741561,80.8555556 L90.8819686,80.8555556 L87.6335311,72.8539931 L86.2694686,72.8539931 Z M86.2694686,69.5633681 L87.2538436,69.5633681 C88.1538481,69.5633681 88.8007166,69.3079019 89.1944686,68.7969618 C89.5882206,68.2860218 89.7850936,67.5243106 89.7850936,66.5118056 C89.7850936,65.4618003 89.5765019,64.7141515 89.1593123,64.2688368 C88.7421228,63.8235221 88.097598,63.6008681 87.2257186,63.6008681 L86.2694686,63.6008681 L86.2694686,69.5633681 Z M101.060219,80.8555556 L97.3195939,80.8555556 L97.3195939,65.1899306 L101.060219,65.1899306 L101.060219,80.8555556 Z M97.1649064,61.0977431 C97.1649064,60.47899 97.3453734,59.9891511 97.7063127,59.6282118 C98.067252,59.2672725 98.5711532,59.0868056 99.2180314,59.0868056 C99.8274095,59.0868056 100.314905,59.2672725 100.680531,59.6282118 C101.046158,59.9891511 101.228969,60.47899 101.228969,61.0977431 C101.228969,61.7352462 101.041471,62.2297725 100.666469,62.5813368 C100.291467,62.9329011 99.8086594,63.1086806 99.2180314,63.1086806 C98.5992783,63.1086806 98.1024083,62.9329011 97.7274064,62.5813368 C97.3524045,62.2297725 97.1649064,61.7352462 97.1649064,61.0977431 Z M116.216594,65.2180556 L116.216594,67.4118056 L114.346282,67.8336806 C114.711909,68.4899338 114.894719,69.3149256 114.894719,70.3086806 C114.894719,71.9680639 114.444724,73.2664884 113.544719,74.2039931 C112.644715,75.1414977 111.388477,75.6102431 109.775969,75.6102431 C109.307217,75.6102431 108.960345,75.5727434 108.735344,75.4977431 C108.557218,75.6571189 108.38847,75.8352421 108.229094,76.0321181 C108.069718,76.228994 107.990032,76.4727416 107.990032,76.7633681 C107.990032,77.4196213 108.557214,77.7477431 109.691594,77.7477431 L111.955657,77.7477431 C113.286913,77.7477431 114.311122,78.1063332 115.028313,78.8235243 C115.745504,79.5407154 116.104094,80.6211733 116.104094,82.0649306 C116.104094,83.8836896 115.494725,85.2899256 114.275969,86.2836806 C113.057213,87.2774355 111.304106,87.7743056 109.016594,87.7743056 C107.282211,87.7743056 105.946286,87.3969656 105.008782,86.6422743 C104.071277,85.887583 103.602532,84.8118125 103.602532,83.4149306 C103.602532,82.5430512 103.869717,81.7766526 104.404094,81.1157118 C104.938472,80.454771 105.679089,79.9743071 106.625969,79.6743056 C106.147842,79.4868046 105.756439,79.1961825 105.45175,78.8024306 C105.147061,78.4086786 104.994719,77.9493082 104.994719,77.4243056 C104.994719,77.105554 105.041594,76.8172756 105.135344,76.5594618 C105.229095,76.301648 105.362687,76.0579005 105.536125,75.8282118 C105.709564,75.5985232 106.063467,75.2586828 106.597844,74.8086806 C105.950966,74.4149286 105.440034,73.8102471 105.065032,72.9946181 C104.69003,72.178989 104.502532,71.2743105 104.502532,70.2805556 C104.502532,68.564922 104.952527,67.2383727 105.852532,66.3008681 C106.752536,65.3633634 108.041586,64.8946181 109.719719,64.8946181 C110.038471,64.8946181 110.404092,64.929774 110.816594,65.0000868 C111.229096,65.0703997 111.543156,65.1430552 111.758782,65.2180556 L116.216594,65.2180556 Z M107.005657,83.1336806 C107.005657,83.7524336 107.200186,84.2282101 107.58925,84.5610243 C107.978315,84.8938385 108.533778,85.0602431 109.255657,85.0602431 C110.390037,85.0602431 111.24081,84.8446202 111.808,84.4133681 C112.375191,83.9821159 112.658782,83.3914968 112.658782,82.6414931 C112.658782,82.0508651 112.506439,81.6336818 112.20175,81.3899306 C111.897061,81.1461793 111.327536,81.0243056 110.493157,81.0243056 L108.679094,81.0243056 C108.172842,81.0243056 107.767377,81.2141474 107.462688,81.5938368 C107.157999,81.9735262 107.005657,82.4868023 107.005657,83.1336806 Z M108.158782,70.3086806 C108.158782,72.1555648 108.679089,73.0789931 109.719719,73.0789931 C110.732224,73.0789931 111.238469,72.1461899 111.238469,70.2805556 C111.238469,68.368046 110.732224,67.4118056 109.719719,67.4118056 C108.679089,67.4118056 108.158782,68.3774209 108.158782,70.3086806 Z M126.577657,80.8555556 L126.577657,71.5180556 C126.577657,69.2211691 126.0011,68.0727431 124.84797,68.0727431 C123.985465,68.0727431 123.380784,68.5250823 123.033907,69.4297743 C122.68703,70.3344663 122.513595,71.6352346 122.513595,73.3321181 L122.513595,80.8555556 L118.77297,80.8555556 L118.77297,58.9743056 L122.513595,58.9743056 L122.513595,63.8399306 C122.513595,64.4680587 122.457345,65.58836 122.344845,67.2008681 L122.54172,67.2008681 C123.291723,65.6633604 124.444837,64.8946181 126.001095,64.8946181 C127.435477,64.8946181 128.518278,65.3797695 129.249532,66.3500868 C129.980786,67.3204042 130.346407,68.7477336 130.346407,70.6321181 L130.346407,80.8555556 L126.577657,80.8555556 Z M139.484032,77.9727431 C140.009035,77.9727431 140.576217,77.8414944 141.185595,77.5789931 L141.185595,80.5039931 C140.576217,80.9258702 139.662163,81.1368056 138.443407,81.1368056 C137.084026,81.1368056 136.076223,80.7313409 135.41997,79.9203993 C134.763717,79.1094578 134.435595,77.8930637 134.435595,76.2711806 L134.435595,68.1571181 L132.916845,68.1571181 L132.916845,66.4836806 L134.871532,65.1336806 L135.827782,61.8149306 L138.218407,61.8149306 L138.218407,65.1899306 L141.059032,65.1899306 L141.059032,68.1571181 L138.218407,68.1571181 L138.218407,76.3977431 C138.218407,77.4477483 138.640278,77.9727431 139.484032,77.9727431 Z M56.5839991,96.1477431 C55.4871186,96.1477431 54.6222835,96.7899241 53.9894678,98.0743056 C53.3566521,99.358687 53.0402491,101.144607 53.0402491,103.432118 C53.0402491,108.194642 54.2824241,110.575868 56.7668116,110.575868 C57.854317,110.575868 58.9933681,110.228997 60.1839991,109.535243 L60.1839991,112.938368 C59.180869,113.603996 57.8965069,113.936806 56.3308741,113.936806 C54.0152375,113.936806 52.236349,113.015721 50.9941553,111.173524 C49.7519616,109.331328 49.1308741,106.74151 49.1308741,103.403993 C49.1308741,100.066476 49.7707114,97.4649399 51.0504053,95.5993056 C52.3300992,93.7336712 54.1089877,92.8008681 56.3871241,92.8008681 C57.1371278,92.8008681 57.8566519,92.903992 58.5457178,93.1102431 C59.2347838,93.3164941 59.9730576,93.677428 60.7605616,94.1930556 L59.4949366,97.3008681 C59.0730595,97.0102416 58.623064,96.7454005 58.1449366,96.5063368 C57.6668092,96.2672731 57.1465019,96.1477431 56.5839991,96.1477431 Z M71.3466244,113.655556 L71.3466244,104.318056 C71.3466244,102.021169 70.7700676,100.872743 69.6169369,100.872743 C68.7544326,100.872743 68.1497511,101.325082 67.8028744,102.229774 C67.4559976,103.134466 67.2825619,104.435235 67.2825619,106.132118 L67.2825619,113.655556 L63.5419369,113.655556 L63.5419369,91.7743056 L67.2825619,91.7743056 L67.2825619,96.6399306 C67.2825619,97.2680587 67.2263124,98.38836 67.1138119,100.000868 L67.3106869,100.000868 C68.0606906,98.4633604 69.2138041,97.6946181 70.7700619,97.6946181 C72.204444,97.6946181 73.2872457,98.1797695 74.0184994,99.1500868 C74.749753,100.120404 75.1153744,101.547734 75.1153744,103.432118 L75.1153744,113.655556 L71.3466244,113.655556 Z M90.4123747,105.794618 C90.4123747,108.363381 89.8686301,110.36258 88.7811247,111.792274 C87.6936192,113.221969 86.2030092,113.936806 84.3092497,113.936806 C83.1092437,113.936806 82.0498793,113.608684 81.1311247,112.952431 C80.2123701,112.296177 79.5045647,111.351655 79.0076872,110.118837 C78.5108097,108.886018 78.2623747,107.444626 78.2623747,105.794618 C78.2623747,103.25398 78.8014318,101.268844 79.8795622,99.8391493 C80.9576926,98.4094547 82.4529901,97.6946181 84.3654997,97.6946181 C86.2123839,97.6946181 87.6819005,98.423517 88.7740934,99.8813368 C89.8662864,101.339157 90.4123747,103.310231 90.4123747,105.794618 Z M82.0873747,105.794618 C82.0873747,107.425876 82.2654979,108.658676 82.6217497,109.493056 C82.9780015,110.327435 83.5498707,110.744618 84.3373747,110.744618 C85.8373822,110.744618 86.5873747,109.094635 86.5873747,105.794618 C86.5873747,104.153985 86.4069077,102.928216 86.0459684,102.117274 C85.6850291,101.306333 85.1155036,100.900868 84.3373747,100.900868 C83.5498707,100.900868 82.9780015,101.306333 82.6217497,102.117274 C82.2654979,102.928216 82.0873747,104.153985 82.0873747,105.794618 Z M97.4828125,113.655556 L93.7421875,113.655556 L93.7421875,97.9899306 L97.4828125,97.9899306 L97.4828125,113.655556 Z M93.5875,93.8977431 C93.5875,93.27899 93.7679669,92.7891511 94.1289063,92.4282118 C94.4898456,92.0672725 94.9937468,91.8868056 95.640625,91.8868056 C96.250003,91.8868056 96.7374982,92.0672725 97.103125,92.4282118 C97.4687518,92.7891511 97.6515625,93.27899 97.6515625,93.8977431 C97.6515625,94.5352462 97.4640644,95.0297725 97.0890625,95.3813368 C96.7140606,95.7329011 96.231253,95.9086806 95.640625,95.9086806 C95.0218719,95.9086806 94.5250019,95.7329011 94.15,95.3813368 C93.7749981,95.0297725 93.5875,94.5352462 93.5875,93.8977431 Z M106.536063,113.936806 C104.670428,113.936806 103.25013,113.257125 102.275125,111.897743 C101.30012,110.538361 100.812625,108.541506 100.812625,105.907118 C100.812625,103.150854 101.274339,101.093062 102.197782,99.7336806 C103.121224,98.3742988 104.548553,97.6946181 106.479813,97.6946181 C107.061066,97.6946181 107.670435,97.7789922 108.307938,97.9477431 C108.945441,98.1164939 109.51731,98.3602415 110.023563,98.6789931 L108.954813,101.589931 C108.176684,101.130553 107.487628,100.900868 106.887625,100.900868 C106.090746,100.900868 105.516533,101.315708 105.164969,102.145399 C104.813405,102.975091 104.637625,104.21961 104.637625,105.878993 C104.637625,107.500876 104.811061,108.712583 105.157938,109.514149 C105.504815,110.315716 106.071996,110.716493 106.8595,110.716493 C107.797005,110.716493 108.776683,110.388371 109.798563,109.732118 L109.798563,113.022743 C108.814183,113.632121 107.726694,113.936806 106.536063,113.936806 Z M118.500251,113.936806 C116.540866,113.936806 114.99635,113.240719 113.866657,111.848524 C112.736964,110.45633 112.172126,108.485256 112.172126,105.935243 C112.172126,103.34773 112.683058,101.327438 113.704938,99.8743056 C114.726818,98.4211733 116.151804,97.6946181 117.979938,97.6946181 C119.686197,97.6946181 121.031496,98.3157056 122.015876,99.5578993 C123.000256,100.800093 123.492438,102.541482 123.492438,104.782118 L123.492438,106.778993 L115.969001,106.778993 C115.997126,108.175875 116.28306,109.214146 116.826813,109.893837 C117.370566,110.573528 118.120558,110.913368 119.076813,110.913368 C120.295569,110.913368 121.542432,110.533684 122.817438,109.774306 L122.817438,112.853993 C121.617432,113.575872 120.178384,113.936806 118.500251,113.936806 Z M117.951813,100.577431 C117.417435,100.577431 116.976815,100.861021 116.629938,101.428212 C116.283061,101.995402 116.081501,102.8743 116.025251,104.064931 L119.822126,104.064931 C119.803376,102.921175 119.62994,102.053996 119.301813,101.463368 C118.973686,100.87274 118.523691,100.577431 117.951813,100.577431 Z" id="The-Right-Choice" fill="#FFFFFF"></path>
            </g>
        </g>
    </g>
</svg>