<?xml version="1.0" encoding="UTF-8"?>
<svg width="175px" height="175px" viewBox="0 0 175 175" version="1.1" xmlns="http://www.w3.org/2000/svg" xmlns:xlink="http://www.w3.org/1999/xlink">
    <!-- Generator: Sketch 43.1 (39012) - http://www.bohemiancoding.com/sketch -->
    <title>Group 7 Copy</title>
    <desc>Created with Sketch.</desc>
    <defs></defs>
    <g id="Page-2" stroke="none" stroke-width="1" fill="none" fill-rule="evenodd">
        <g id="Artboard-Copy" transform="translate(-517.000000, -886.000000)">
            <g id="Group-7-Copy" transform="translate(518.000000, 887.000000)">
                <circle id="Oval" stroke="#FFACA0" stroke-width="0.8" fill="#FFACA0" cx="86.5" cy="86.5" r="86.5"></circle>
                <path d="M44.6150963,80 L41.5877525,80 L41.5877525,68.2421875 L37.7107994,68.2421875 L37.7107994,65.7226562 L48.4920494,65.7226562 L48.4920494,68.2421875 L44.6150963,68.2421875 L44.6150963,80 Z M60.9997318,80 L58.0212162,80 L58.0212162,73.6230469 C58.0212162,72.0475182 57.4352846,71.2597656 56.2634037,71.2597656 C55.4300662,71.2597656 54.8278587,71.5429659 54.4567631,72.109375 C54.0856675,72.6757841 53.9001224,73.5937437 53.9001224,74.8632812 L53.9001224,80 L50.9216068,80 L50.9216068,64.8046875 L53.9001224,64.8046875 L53.9001224,67.9003906 C53.9001224,68.1412772 53.8773362,68.7076778 53.8317631,69.5996094 L53.7634037,70.4785156 L53.9196537,70.4785156 C54.5837195,69.410802 55.6383965,68.8769531 57.0837162,68.8769531 C58.3662747,68.8769531 59.3395723,69.2220018 60.0036381,69.9121094 C60.6677039,70.602217 60.9997318,71.5917904 60.9997318,72.8808594 L60.9997318,80 Z M69.0542893,70.9960938 C68.4227757,70.9960938 67.927989,71.1962871 67.5699143,71.5966797 C67.2118396,71.9970723 67.0067635,72.5651005 66.9546799,73.3007812 L71.1343674,73.3007812 C71.1213465,72.5651005 70.9292911,71.9970723 70.5581955,71.5966797 C70.1870999,71.1962871 69.6858028,70.9960938 69.0542893,70.9960938 Z M69.4742111,80.1953125 C67.7163898,80.1953125 66.3427057,79.7102913 65.3531174,78.7402344 C64.3635291,77.7701774 63.8687424,76.3964933 63.8687424,74.6191406 C63.8687424,72.7897044 64.3260946,71.3753305 65.2408127,70.3759766 C66.1555308,69.3766226 67.4201666,68.8769531 69.034758,68.8769531 C70.5777345,68.8769531 71.7788943,69.3164019 72.6382736,70.1953125 C73.4976529,71.0742231 73.9273361,72.2884037 73.9273361,73.8378906 L73.9273361,75.2832031 L66.8863205,75.2832031 C66.9188728,76.1295615 67.1695213,76.7903622 67.6382736,77.265625 C68.107026,77.7408878 68.7645715,77.9785156 69.6109299,77.9785156 C70.2684853,77.9785156 70.8902238,77.9101569 71.4761643,77.7734375 C72.0621047,77.6367181 72.6740777,77.4186213 73.3121018,77.1191406 L73.3121018,79.4238281 C72.7912658,79.6842461 72.2346308,79.8779291 71.6421799,80.0048828 C71.049729,80.1318366 70.32708,80.1953125 69.4742111,80.1953125 Z M85.739576,72.0605469 L86.7161385,72.0605469 C87.6731746,72.0605469 88.3795477,71.9010433 88.8352791,71.5820312 C89.2910106,71.2630192 89.5188729,70.7617222 89.5188729,70.078125 C89.5188729,69.4010383 89.2861278,68.9192723 88.8206307,68.6328125 C88.3551336,68.3463527 87.6341122,68.203125 86.6575448,68.203125 L85.739576,68.203125 L85.739576,72.0605469 Z M85.739576,74.5214844 L85.739576,80 L82.7122323,80 L82.7122323,65.7226562 L86.8723885,65.7226562 C88.8125024,65.7226562 90.2480349,66.0758428 91.1790291,66.7822266 C92.1100234,67.4886103 92.5755135,68.5611907 92.5755135,70 C92.5755135,70.8398479 92.344396,71.5869108 91.8821541,72.2412109 C91.4199123,72.8955111 90.7656219,73.4082013 89.9192635,73.7792969 C92.0677118,76.9889483 93.4674374,79.0624953 94.1184823,80 L90.7591073,80 L87.3509041,74.5214844 L85.739576,74.5214844 Z M96.020696,66.2597656 C96.020696,65.2897087 96.5610551,64.8046875 97.6417897,64.8046875 C98.7225243,64.8046875 99.2628835,65.2897087 99.2628835,66.2597656 C99.2628835,66.7220075 99.1277937,67.0817044 98.85761,67.3388672 C98.5874264,67.5960299 98.182157,67.7246094 97.6417897,67.7246094 C96.5610551,67.7246094 96.020696,67.236333 96.020696,66.2597656 Z M99.1261647,80 L96.1476491,80 L96.1476491,69.0820312 L99.1261647,69.0820312 L99.1261647,80 Z M112.219785,69.0820312 L112.219785,70.5957031 L110.5108,71.0351562 C110.823302,71.5234399 110.97955,72.0703095 110.97955,72.6757812 C110.97955,73.8476621 110.571026,74.7607389 109.753964,75.4150391 C108.936903,76.0693392 107.802474,76.3964844 106.350644,76.3964844 L105.813535,76.3671875 L105.374082,76.3183594 C105.06809,76.5527355 104.915097,76.8131496 104.915097,77.0996094 C104.915097,77.529299 105.461967,77.7441406 106.555722,77.7441406 L108.411191,77.7441406 C109.609114,77.7441406 110.52219,78.0012995 111.150449,78.515625 C111.778707,79.0299505 112.092832,79.7851513 112.092832,80.78125 C112.092832,82.057298 111.56061,83.0468715 110.496152,83.75 C109.431693,84.4531285 107.903388,84.8046875 105.911191,84.8046875 C104.387746,84.8046875 103.22402,84.5393907 102.41998,84.0087891 C101.615939,83.4781875 101.213925,82.7343798 101.213925,81.7773438 C101.213925,81.1197884 101.419001,80.5696637 101.82916,80.1269531 C102.239318,79.6842426 102.841525,79.3684905 103.6358,79.1796875 C103.329809,79.0494785 103.062885,78.8362645 102.835019,78.5400391 C102.607153,78.2438136 102.493222,77.9296892 102.493222,77.5976562 C102.493222,77.1809875 102.613664,76.8343113 102.85455,76.5576172 C103.095437,76.2809231 103.443741,76.0091159 103.899472,75.7421875 C103.326553,75.4947904 102.872456,75.097659 102.537167,74.5507812 C102.201879,74.0039035 102.034238,73.3593787 102.034238,72.6171875 C102.034238,71.4257753 102.421604,70.5045605 103.196347,69.8535156 C103.971091,69.2024707 105.07785,68.8769531 106.51666,68.8769531 C106.822651,68.8769531 107.185603,68.9046221 107.605527,68.9599609 C108.025451,69.0152998 108.294003,69.0559895 108.411191,69.0820312 L112.219785,69.0820312 Z M103.79205,81.5429688 C103.79205,81.9531271 103.988988,82.2753895 104.382871,82.5097656 C104.776753,82.7441418 105.328505,82.8613281 106.038144,82.8613281 C107.105858,82.8613281 107.942438,82.7148452 108.54791,82.421875 C109.153381,82.1289048 109.456113,81.7285182 109.456113,81.2207031 C109.456113,80.8105448 109.277078,80.5273445 108.919003,80.3710938 C108.560929,80.214843 108.007549,80.1367188 107.258847,80.1367188 L105.715878,80.1367188 C105.169001,80.1367188 104.711648,80.2652982 104.343808,80.5224609 C103.975968,80.7796237 103.79205,81.1197896 103.79205,81.5429688 Z M104.876035,72.65625 C104.876035,73.2487009 105.011124,73.7174462 105.281308,74.0625 C105.551492,74.4075538 105.963271,74.5800781 106.51666,74.5800781 C107.076558,74.5800781 107.48671,74.4075538 107.747128,74.0625 C108.007546,73.7174462 108.137753,73.2487009 108.137753,72.65625 C108.137753,71.3411393 107.597394,70.6835938 106.51666,70.6835938 C105.422904,70.6835938 104.876035,71.3411393 104.876035,72.65625 Z M124.561451,80 L121.582936,80 L121.582936,73.6230469 C121.582936,72.0475182 120.997004,71.2597656 119.825123,71.2597656 C118.991786,71.2597656 118.389578,71.5429659 118.018483,72.109375 C117.647387,72.6757841 117.461842,73.5937437 117.461842,74.8632812 L117.461842,80 L114.483326,80 L114.483326,64.8046875 L117.461842,64.8046875 L117.461842,67.9003906 C117.461842,68.1412772 117.439056,68.7076778 117.393483,69.5996094 L117.325123,70.4785156 L117.481373,70.4785156 C118.145439,69.410802 119.200116,68.8769531 120.645436,68.8769531 C121.927994,68.8769531 122.901292,69.2220018 123.565358,69.9121094 C124.229424,70.602217 124.561451,71.5917904 124.561451,72.8808594 L124.561451,80 Z M132.694134,77.8222656 C133.21497,77.8222656 133.839964,77.7083345 134.569134,77.4804688 L134.569134,79.6972656 C133.826943,80.0292985 132.915493,80.1953125 131.834759,80.1953125 C130.643347,80.1953125 129.775842,79.8942087 129.23222,79.2919922 C128.688597,78.6897756 128.41679,77.7864644 128.41679,76.5820312 L128.41679,71.3183594 L126.991009,71.3183594 L126.991009,70.0585938 L128.631634,69.0625 L129.491009,66.7578125 L131.395306,66.7578125 L131.395306,69.0820312 L134.451946,69.0820312 L134.451946,71.3183594 L131.395306,71.3183594 L131.395306,76.5820312 C131.395306,77.0052104 131.51412,77.3177073 131.751751,77.5195312 C131.989383,77.7213552 132.303507,77.8222656 132.694134,77.8222656 Z M56.6481043,107 L53.6695887,107 L53.6695887,92.7226562 L61.8531824,92.7226562 L61.8531824,95.203125 L56.6481043,95.203125 L56.6481043,98.8847656 L61.4918543,98.8847656 L61.4918543,101.355469 L56.6481043,101.355469 L56.6481043,107 Z M72.612818,107 L72.2124274,105.603516 L72.0561774,105.603516 C71.7371653,106.111331 71.2846959,106.503579 70.6987555,106.780273 C70.1128151,107.056968 69.445504,107.195312 68.6968024,107.195312 C67.4142439,107.195312 66.4474567,106.851891 65.7964117,106.165039 C65.1453668,105.478187 64.8198492,104.490241 64.8198492,103.201172 L64.8198492,96.0820312 L67.7983649,96.0820312 L67.7983649,102.458984 C67.7983649,103.246749 67.9383374,103.837563 68.2182867,104.231445 C68.4982361,104.625327 68.9441951,104.822266 69.5561774,104.822266 C70.3895149,104.822266 70.9917224,104.543948 71.362818,103.987305 C71.7339136,103.430661 71.9194586,102.507819 71.9194586,101.21875 L71.9194586,96.0820312 L74.8979742,96.0820312 L74.8979742,107 L72.612818,107 Z M83.0892504,104.822266 C83.6100864,104.822266 84.2350801,104.708334 84.9642504,104.480469 L84.9642504,106.697266 C84.2220592,107.029299 83.31061,107.195312 82.2298754,107.195312 C81.0384632,107.195312 80.1709589,106.894209 79.6273364,106.291992 C79.0837139,105.689776 78.8119067,104.786464 78.8119067,103.582031 L78.8119067,98.3183594 L77.3861254,98.3183594 L77.3861254,97.0585938 L79.0267504,96.0625 L79.8861254,93.7578125 L81.7904223,93.7578125 L81.7904223,96.0820312 L84.8470629,96.0820312 L84.8470629,98.3183594 L81.7904223,98.3183594 L81.7904223,103.582031 C81.7904223,104.00521 81.9092362,104.317707 82.1468676,104.519531 C82.384499,104.721355 82.6986235,104.822266 83.0892504,104.822266 Z M95.3723235,107 L94.9719329,105.603516 L94.8156829,105.603516 C94.4966709,106.111331 94.0442014,106.503579 93.458261,106.780273 C92.8723206,107.056968 92.2050095,107.195312 91.4563079,107.195312 C90.1737494,107.195312 89.2069622,106.851891 88.5559172,106.165039 C87.9048723,105.478187 87.5793547,104.490241 87.5793547,103.201172 L87.5793547,96.0820312 L90.5578704,96.0820312 L90.5578704,102.458984 C90.5578704,103.246749 90.6978429,103.837563 90.9777922,104.231445 C91.2577416,104.625327 91.7037006,104.822266 92.3156829,104.822266 C93.1490204,104.822266 93.7512279,104.543948 94.1223235,103.987305 C94.4934191,103.430661 94.6789641,102.507819 94.6789641,101.21875 L94.6789641,96.0820312 L97.6574797,96.0820312 L97.6574797,107 L95.3723235,107 Z M107.342897,95.8769531 C107.746544,95.8769531 108.081828,95.9062497 108.348756,95.9648438 L108.124147,98.7578125 C107.88326,98.692708 107.590294,98.6601562 107.24524,98.6601562 C106.294715,98.6601562 105.554162,98.9042944 105.023561,99.3925781 C104.492959,99.8808618 104.227662,100.564449 104.227662,101.443359 L104.227662,107 L101.249147,107 L101.249147,96.0820312 L103.505006,96.0820312 L103.944459,97.9179688 L104.090943,97.9179688 C104.429487,97.3059865 104.886839,96.8128274 105.463014,96.4384766 C106.039189,96.0641257 106.66581,95.8769531 107.342897,95.8769531 Z M114.918938,97.9960938 C114.287425,97.9960938 113.792638,98.1962871 113.434563,98.5966797 C113.076489,98.9970723 112.871413,99.5651005 112.819329,100.300781 L116.999017,100.300781 C116.985996,99.5651005 116.79394,98.9970723 116.422845,98.5966797 C116.051749,98.1962871 115.550452,97.9960938 114.918938,97.9960938 Z M115.33886,107.195312 C113.581039,107.195312 112.207355,106.710291 111.217767,105.740234 C110.228178,104.770177 109.733392,103.396493 109.733392,101.619141 C109.733392,99.7897044 110.190744,98.3753305 111.105462,97.3759766 C112.02018,96.3766226 113.284816,95.8769531 114.899407,95.8769531 C116.442384,95.8769531 117.643543,96.3164019 118.502923,97.1953125 C119.362302,98.0742231 119.791985,99.2884037 119.791985,100.837891 L119.791985,102.283203 L112.75097,102.283203 C112.783522,103.129562 113.03417,103.790362 113.502923,104.265625 C113.971675,104.740888 114.629221,104.978516 115.475579,104.978516 C116.133134,104.978516 116.754873,104.910157 117.340813,104.773438 C117.926754,104.636718 118.538727,104.418621 119.176751,104.119141 L119.176751,106.423828 C118.655915,106.684246 118.09928,106.877929 117.506829,107.004883 C116.914378,107.131837 116.191729,107.195312 115.33886,107.195312 Z" id="The-Right-Future" fill="#FFFFFF"></path>
            </g>
        </g>
    </g>
</svg>