<?xml version="1.0" encoding="UTF-8"?>
<svg width="175px" height="175px" viewBox="0 0 175 175" version="1.1" xmlns="http://www.w3.org/2000/svg" xmlns:xlink="http://www.w3.org/1999/xlink">
    <!-- Generator: Sketch 43.1 (39012) - http://www.bohemiancoding.com/sketch -->
    <title>Group 7 Copy 2</title>
    <desc>Created with Sketch.</desc>
    <defs></defs>
    <g id="Page-2" stroke="none" stroke-width="1" fill="none" fill-rule="evenodd">
        <g id="Artboard-Copy" transform="translate(-527.000000, -1305.000000)">
            <g id="Group-7-Copy-2" transform="translate(528.000000, 1306.000000)">
                <circle id="Oval" stroke="#FFACA0" stroke-width="0.8" fill="#FFACA0" cx="86.5" cy="86.5" r="86.5"></circle>
                <path d="M38.7484375,80.88125 L34.9375,80.88125 L34.9375,63.6828125 L31,63.6828125 L31,60.321875 L42.6859375,60.321875 L42.6859375,63.6828125 L38.7484375,63.6828125 L38.7484375,80.88125 Z M53.1313753,80.88125 L53.1313753,71.54375 C53.1313753,69.2468635 52.5548186,68.0984375 51.4016878,68.0984375 C50.5391835,68.0984375 49.934502,68.5507767 49.5876253,69.4554688 C49.2407486,70.3601608 49.0673128,71.660929 49.0673128,73.3578125 L49.0673128,80.88125 L45.3266878,80.88125 L45.3266878,59 L49.0673128,59 L49.0673128,63.865625 C49.0673128,64.4937531 49.0110634,65.6140544 48.8985628,67.2265625 L49.0954378,67.2265625 C49.8454416,65.6890548 50.998555,64.9203125 52.5548128,64.9203125 C53.989195,64.9203125 55.0719967,65.4054639 55.8032503,66.3757813 C56.534504,67.3460986 56.9001253,68.7734281 56.9001253,70.6578125 L56.9001253,80.88125 L53.1313753,80.88125 Z M66.3752506,81.1625 C64.4158658,81.1625 62.87135,80.4664132 61.7416569,79.0742188 C60.6119637,77.6820243 60.0471256,75.7109503 60.0471256,73.1609375 C60.0471256,70.5734246 60.558058,68.5531323 61.5799381,67.1 C62.6018182,65.6468677 64.026804,64.9203125 65.8549381,64.9203125 C67.5611967,64.9203125 68.9064957,65.5414 69.8908756,66.7835937 C70.8752555,68.0257875 71.3674381,69.7671763 71.3674381,72.0078125 L71.3674381,74.0046875 L63.8440006,74.0046875 C63.8721258,75.4015695 64.1580604,76.4398404 64.7018131,77.1195313 C65.2455658,77.7992221 65.9955583,78.1390625 66.9518131,78.1390625 C68.1705692,78.1390625 69.4174318,77.7593788 70.6924381,77 L70.6924381,80.0796875 C69.4924321,80.8015661 68.053384,81.1625 66.3752506,81.1625 Z M65.8268131,67.803125 C65.2924355,67.803125 64.8518149,68.0867159 64.5049381,68.6539063 C64.1580614,69.2210966 63.9565009,70.099994 63.9002506,71.290625 L67.6971256,71.290625 C67.6783755,70.1468693 67.5049398,69.2796905 67.1768131,68.6890625 C66.8486865,68.0984345 66.398691,67.803125 65.8268131,67.803125 Z M86.3520638,72.8796875 L86.3520638,80.88125 L82.5270638,80.88125 L82.5270638,60.321875 L87.5333138,60.321875 C89.6520743,60.321875 91.21534,60.8234325 92.2231575,61.8265625 C93.230975,62.8296925 93.7348763,64.3624897 93.7348763,66.425 C93.7348763,69.021888 92.8583225,70.8359323 91.1051888,71.8671875 L95.0567513,80.88125 L90.9645638,80.88125 L87.7161263,72.8796875 L86.3520638,72.8796875 Z M86.3520638,69.5890625 L87.3364388,69.5890625 C88.2364433,69.5890625 88.8833118,69.3335963 89.2770638,68.8226562 C89.6708157,68.3117162 89.8676888,67.5500051 89.8676888,66.5375 C89.8676888,65.4874947 89.6590971,64.739846 89.2419075,64.2945313 C88.8247179,63.8492165 88.1801931,63.6265625 87.3083138,63.6265625 L86.3520638,63.6265625 L86.3520638,69.5890625 Z M101.142814,80.88125 L97.4021891,80.88125 L97.4021891,65.215625 L101.142814,65.215625 L101.142814,80.88125 Z M97.2475016,61.1234375 C97.2475016,60.5046844 97.4279685,60.0148456 97.7889078,59.6539063 C98.1498471,59.2929669 98.6537483,59.1125 99.3006266,59.1125 C99.9100046,59.1125 100.3975,59.2929669 100.763127,59.6539063 C101.128753,60.0148456 101.311564,60.5046844 101.311564,61.1234375 C101.311564,61.7609407 101.124066,62.255467 100.749064,62.6070313 C100.374062,62.9585955 99.8912545,63.134375 99.3006266,63.134375 C98.6818735,63.134375 98.1850034,62.9585955 97.8100016,62.6070313 C97.4349997,62.255467 97.2475016,61.7609407 97.2475016,61.1234375 Z M116.299189,65.24375 L116.299189,67.4375 L114.428877,67.859375 C114.794504,68.5156283 114.977314,69.34062 114.977314,70.334375 C114.977314,71.9937583 114.527319,73.2921828 113.627314,74.2296875 C112.72731,75.1671922 111.471072,75.6359375 109.858564,75.6359375 C109.389812,75.6359375 109.042941,75.5984379 108.817939,75.5234375 C108.639813,75.6828133 108.471065,75.8609365 108.311689,76.0578125 C108.152314,76.2546885 108.072627,76.498436 108.072627,76.7890625 C108.072627,77.4453158 108.639809,77.7734375 109.774189,77.7734375 L112.038252,77.7734375 C113.369509,77.7734375 114.393717,78.1320277 115.110908,78.8492187 C115.828099,79.5664098 116.186689,80.6468678 116.186689,82.090625 C116.186689,83.9093841 115.57732,85.31562 114.358564,86.309375 C113.139808,87.30313 111.386701,87.8 109.099189,87.8 C107.364806,87.8 106.028882,87.42266 105.091377,86.6679687 C104.153872,85.9132775 103.685127,84.837507 103.685127,83.440625 C103.685127,82.5687456 103.952312,81.8023471 104.486689,81.1414062 C105.021067,80.4804654 105.761685,80.0000015 106.708564,79.7 C106.230437,79.5124991 105.839035,79.221877 105.534346,78.828125 C105.229657,78.434373 105.077314,77.9750026 105.077314,77.45 C105.077314,77.1312484 105.124189,76.84297 105.217939,76.5851562 C105.31169,76.3273425 105.445282,76.0835949 105.618721,75.8539063 C105.792159,75.6242176 106.146062,75.2843772 106.680439,74.834375 C106.033561,74.440623 105.522629,73.8359416 105.147627,73.0203125 C104.772625,72.2046834 104.585127,71.300005 104.585127,70.30625 C104.585127,68.5906164 105.035122,67.2640672 105.935127,66.3265625 C106.835131,65.3890578 108.124181,64.9203125 109.802314,64.9203125 C110.121066,64.9203125 110.486687,64.9554684 110.899189,65.0257812 C111.311691,65.0960941 111.625751,65.1687496 111.841377,65.24375 L116.299189,65.24375 Z M107.088252,83.159375 C107.088252,83.7781281 107.282781,84.2539046 107.671846,84.5867188 C108.06091,84.9195329 108.616373,85.0859375 109.338252,85.0859375 C110.472633,85.0859375 111.323405,84.8703147 111.890596,84.4390625 C112.457786,84.0078103 112.741377,83.4171913 112.741377,82.6671875 C112.741377,82.0765595 112.589035,81.6593762 112.284346,81.415625 C111.979657,81.1718738 111.410131,81.05 110.575752,81.05 L108.761689,81.05 C108.255437,81.05 107.849972,81.2398419 107.545283,81.6195313 C107.240594,81.9992206 107.088252,82.5124968 107.088252,83.159375 Z M108.241377,70.334375 C108.241377,72.1812592 108.761684,73.1046875 109.802314,73.1046875 C110.814819,73.1046875 111.321064,72.1718843 111.321064,70.30625 C111.321064,68.3937404 110.814819,67.4375 109.802314,67.4375 C108.761684,67.4375 108.241377,68.4031153 108.241377,70.334375 Z M126.660252,80.88125 L126.660252,71.54375 C126.660252,69.2468635 126.083695,68.0984375 124.930565,68.0984375 C124.06806,68.0984375 123.463379,68.5507767 123.116502,69.4554688 C122.769625,70.3601608 122.59619,71.660929 122.59619,73.3578125 L122.59619,80.88125 L118.855565,80.88125 L118.855565,59 L122.59619,59 L122.59619,63.865625 C122.59619,64.4937531 122.53994,65.6140544 122.42744,67.2265625 L122.624315,67.2265625 C123.374318,65.6890548 124.527432,64.9203125 126.08369,64.9203125 C127.518072,64.9203125 128.600874,65.4054639 129.332127,66.3757813 C130.063381,67.3460986 130.429002,68.7734281 130.429002,70.6578125 L130.429002,80.88125 L126.660252,80.88125 Z M139.566628,77.9984375 C140.09163,77.9984375 140.658812,77.8671888 141.26819,77.6046875 L141.26819,80.5296875 C140.658812,80.9515646 139.744759,81.1625 138.526003,81.1625 C137.166621,81.1625 136.158818,80.7570353 135.502565,79.9460938 C134.846312,79.1351522 134.51819,77.9187581 134.51819,76.296875 L134.51819,68.1828125 L132.99944,68.1828125 L132.99944,66.509375 L134.954128,65.159375 L135.910378,61.840625 L138.301003,61.840625 L138.301003,65.215625 L141.141628,65.215625 L141.141628,68.1828125 L138.301003,68.1828125 L138.301003,76.4234375 C138.301003,77.4734428 138.722873,77.9984375 139.566628,77.9984375 Z M53.5447192,113.68125 L49.7478442,113.68125 L49.7478442,93.121875 L58.9587817,93.121875 L58.9587817,96.4265625 L53.5447192,96.4265625 L53.5447192,102.135937 L58.5931567,102.135937 L58.5931567,105.440625 L53.5447192,105.440625 L53.5447192,113.68125 Z M70.4448445,113.68125 L69.980782,111.670313 L69.783907,111.670313 C69.4370303,112.382816 68.942504,112.942967 68.3003133,113.350781 C67.6581226,113.758596 66.9245362,113.9625 66.099532,113.9625 C64.693275,113.9625 63.6292231,113.48438 62.9073445,112.528125 C62.1854659,111.57187 61.824532,110.142197 61.824532,108.239063 L61.824532,98.015625 L65.6073445,98.015625 L65.6073445,107.339062 C65.6073445,108.482818 65.7432807,109.34531 66.015157,109.926563 C66.2870334,110.507815 66.727654,110.798438 67.337032,110.798438 C68.1432861,110.798438 68.7315614,110.395317 69.1018758,109.589062 C69.4721901,108.782808 69.6573445,107.428135 69.6573445,105.525 L69.6573445,98.015625 L73.440157,98.015625 L73.440157,113.68125 L70.4448445,113.68125 Z M82.6902823,110.798438 C83.215285,110.798438 83.7824668,110.667189 84.3918448,110.404688 L84.3918448,113.329688 C83.7824668,113.751565 82.8684134,113.9625 81.6496573,113.9625 C80.2902755,113.9625 79.2824731,113.557035 78.6262198,112.746094 C77.9699666,111.935152 77.6418448,110.718758 77.6418448,109.096875 L77.6418448,100.982813 L76.1230948,100.982813 L76.1230948,99.309375 L78.0777823,97.959375 L79.0340323,94.640625 L81.4246573,94.640625 L81.4246573,98.015625 L84.2652823,98.015625 L84.2652823,100.982813 L81.4246573,100.982813 L81.4246573,109.223438 C81.4246573,110.273443 81.8465281,110.798438 82.6902823,110.798438 Z M95.7232202,113.68125 L95.2591577,111.670313 L95.0622827,111.670313 C94.7154059,112.382816 94.2208796,112.942967 93.5786889,113.350781 C92.9364982,113.758596 92.2029118,113.9625 91.3779077,113.9625 C89.9716506,113.9625 88.9075988,113.48438 88.1857202,112.528125 C87.4638415,111.57187 87.1029077,110.142197 87.1029077,108.239063 L87.1029077,98.015625 L90.8857202,98.015625 L90.8857202,107.339062 C90.8857202,108.482818 91.0216563,109.34531 91.2935327,109.926563 C91.565409,110.507815 92.0060296,110.798438 92.6154077,110.798438 C93.4216617,110.798438 94.0099371,110.395317 94.3802514,109.589062 C94.7505658,108.782808 94.9357202,107.428135 94.9357202,105.525 L94.9357202,98.015625 L98.7185327,98.015625 L98.7185327,113.68125 L95.7232202,113.68125 Z M109.206158,97.7203125 C109.665535,97.7203125 110.115531,97.7906243 110.556158,97.93125 L110.12022,101.559375 C109.857719,101.465625 109.515535,101.41875 109.093658,101.41875 C108.184278,101.41875 107.485848,101.77734 106.998345,102.494531 C106.510843,103.211722 106.267095,104.254681 106.267095,105.623438 L106.267095,113.68125 L102.52647,113.68125 L102.52647,98.015625 L105.606158,98.015625 L106.028033,100.4625 L106.154595,100.4625 C106.567098,99.4781201 107.017093,98.7750021 107.504595,98.353125 C107.992098,97.9312479 108.55928,97.7203125 109.206158,97.7203125 Z M118.681283,113.9625 C116.721898,113.9625 115.177383,113.266413 114.04769,111.874219 C112.917996,110.482024 112.353158,108.51095 112.353158,105.960938 C112.353158,103.373425 112.864091,101.353132 113.885971,99.9 C114.907851,98.4468677 116.332837,97.7203125 118.160971,97.7203125 C119.867229,97.7203125 121.212528,98.3414 122.196908,99.5835938 C123.181288,100.825787 123.673471,102.567176 123.673471,104.807812 L123.673471,106.804688 L116.150033,106.804688 C116.178158,108.201569 116.464093,109.23984 117.007846,109.919531 C117.551599,110.599222 118.301591,110.939063 119.257846,110.939063 C120.476602,110.939063 121.723464,110.559379 122.998471,109.8 L122.998471,112.879688 C121.798465,113.601566 120.359417,113.9625 118.681283,113.9625 Z M118.132846,100.603125 C117.598468,100.603125 117.157848,100.886716 116.810971,101.453906 C116.464094,102.021097 116.262534,102.899994 116.206283,104.090625 L120.003158,104.090625 C119.984408,102.946869 119.810972,102.07969 119.482846,101.489063 C119.154719,100.898435 118.704724,100.603125 118.132846,100.603125 Z" id="The-Right-Future" fill="#FFFFFF"></path>
            </g>
        </g>
    </g>
</svg>