<?xml version="1.0" encoding="UTF-8"?>
<svg width="175px" height="175px" viewBox="0 0 175 175" version="1.1" xmlns="http://www.w3.org/2000/svg" xmlns:xlink="http://www.w3.org/1999/xlink">
    <!-- Generator: Sketch 43.1 (39012) - http://www.bohemiancoding.com/sketch -->
    <title>Group 7 Copy</title>
    <desc>Created with Sketch.</desc>
    <defs></defs>
    <g id="Page-2" stroke="none" stroke-width="1" fill="none" fill-rule="evenodd">
        <g id="Artboard-Copy" transform="translate(-517.000000, -886.000000)">
            <g id="Group-7-Copy" transform="translate(518.000000, 887.000000)">
                <circle id="Oval" stroke="#FFACA0" stroke-width="0.8" fill="#FFACA0" cx="86.5" cy="86.5" r="86.5"></circle>
                <path d="M44.6150963,80 L41.5877525,80 L41.5877525,68.2421875 L37.7107994,68.2421875 L37.7107994,65.7226562 L48.4920494,65.7226562 L48.4920494,68.2421875 L44.6150963,68.2421875 L44.6150963,80 Z M60.9997318,80 L58.0212162,80 L58.0212162,73.6230469 C58.0212162,72.0475182 57.4352846,71.2597656 56.2634037,71.2597656 C55.4300662,71.2597656 54.8278587,71.5429659 54.4567631,72.109375 C54.0856675,72.6757841 53.9001224,73.5937437 53.9001224,74.8632812 L53.9001224,80 L50.9216068,80 L50.9216068,64.8046875 L53.9001224,64.8046875 L53.9001224,67.9003906 C53.9001224,68.1412772 53.8773362,68.7076778 53.8317631,69.5996094 L53.7634037,70.4785156 L53.9196537,70.4785156 C54.5837195,69.410802 55.6383965,68.8769531 57.0837162,68.8769531 C58.3662747,68.8769531 59.3395723,69.2220018 60.0036381,69.9121094 C60.6677039,70.602217 60.9997318,71.5917904 60.9997318,72.8808594 L60.9997318,80 Z M69.0542893,70.9960938 C68.4227757,70.9960938 67.927989,71.1962871 67.5699143,71.5966797 C67.2118396,71.9970723 67.0067635,72.5651005 66.9546799,73.3007812 L71.1343674,73.3007812 C71.1213465,72.5651005 70.9292911,71.9970723 70.5581955,71.5966797 C70.1870999,71.1962871 69.6858028,70.9960938 69.0542893,70.9960938 Z M69.4742111,80.1953125 C67.7163898,80.1953125 66.3427057,79.7102913 65.3531174,78.7402344 C64.3635291,77.7701774 63.8687424,76.3964933 63.8687424,74.6191406 C63.8687424,72.7897044 64.3260946,71.3753305 65.2408127,70.3759766 C66.1555308,69.3766226 67.4201666,68.8769531 69.034758,68.8769531 C70.5777345,68.8769531 71.7788943,69.3164019 72.6382736,70.1953125 C73.4976529,71.0742231 73.9273361,72.2884037 73.9273361,73.8378906 L73.9273361,75.2832031 L66.8863205,75.2832031 C66.9188728,76.1295615 67.1695213,76.7903622 67.6382736,77.265625 C68.107026,77.7408878 68.7645715,77.9785156 69.6109299,77.9785156 C70.2684853,77.9785156 70.8902238,77.9101569 71.4761643,77.7734375 C72.0621047,77.6367181 72.6740777,77.4186213 73.3121018,77.1191406 L73.3121018,79.4238281 C72.7912658,79.6842461 72.2346308,79.8779291 71.6421799,80.0048828 C71.049729,80.1318366 70.32708,80.1953125 69.4742111,80.1953125 Z M85.739576,72.0605469 L86.7161385,72.0605469 C87.6731746,72.0605469 88.3795477,71.9010433 88.8352791,71.5820312 C89.2910106,71.2630192 89.5188729,70.7617222 89.5188729,70.078125 C89.5188729,69.4010383 89.2861278,68.9192723 88.8206307,68.6328125 C88.3551336,68.3463527 87.6341122,68.203125 86.6575448,68.203125 L85.739576,68.203125 L85.739576,72.0605469 Z M85.739576,74.5214844 L85.739576,80 L82.7122323,80 L82.7122323,65.7226562 L86.8723885,65.7226562 C88.8125024,65.7226562 90.2480349,66.0758428 91.1790291,66.7822266 C92.1100234,67.4886103 92.5755135,68.5611907 92.5755135,70 C92.5755135,70.8398479 92.344396,71.5869108 91.8821541,72.2412109 C91.4199123,72.8955111 90.7656219,73.4082013 89.9192635,73.7792969 C92.0677118,76.9889483 93.4674374,79.0624953 94.1184823,80 L90.7591073,80 L87.3509041,74.5214844 L85.739576,74.5214844 Z M96.020696,66.2597656 C96.020696,65.2897087 96.5610551,64.8046875 97.6417897,64.8046875 C98.7225243,64.8046875 99.2628835,65.2897087 99.2628835,66.2597656 C99.2628835,66.7220075 99.1277937,67.0817044 98.85761,67.3388672 C98.5874264,67.5960299 98.182157,67.7246094 97.6417897,67.7246094 C96.5610551,67.7246094 96.020696,67.236333 96.020696,66.2597656 Z M99.1261647,80 L96.1476491,80 L96.1476491,69.0820312 L99.1261647,69.0820312 L99.1261647,80 Z M112.219785,69.0820312 L112.219785,70.5957031 L110.5108,71.0351562 C110.823302,71.5234399 110.97955,72.0703095 110.97955,72.6757812 C110.97955,73.8476621 110.571026,74.7607389 109.753964,75.4150391 C108.936903,76.0693392 107.802474,76.3964844 106.350644,76.3964844 L105.813535,76.3671875 L105.374082,76.3183594 C105.06809,76.5527355 104.915097,76.8131496 104.915097,77.0996094 C104.915097,77.529299 105.461967,77.7441406 106.555722,77.7441406 L108.411191,77.7441406 C109.609114,77.7441406 110.52219,78.0012995 111.150449,78.515625 C111.778707,79.0299505 112.092832,79.7851513 112.092832,80.78125 C112.092832,82.057298 111.56061,83.0468715 110.496152,83.75 C109.431693,84.4531285 107.903388,84.8046875 105.911191,84.8046875 C104.387746,84.8046875 103.22402,84.5393907 102.41998,84.0087891 C101.615939,83.4781875 101.213925,82.7343798 101.213925,81.7773438 C101.213925,81.1197884 101.419001,80.5696637 101.82916,80.1269531 C102.239318,79.6842426 102.841525,79.3684905 103.6358,79.1796875 C103.329809,79.0494785 103.062885,78.8362645 102.835019,78.5400391 C102.607153,78.2438136 102.493222,77.9296892 102.493222,77.5976562 C102.493222,77.1809875 102.613664,76.8343113 102.85455,76.5576172 C103.095437,76.2809231 103.443741,76.0091159 103.899472,75.7421875 C103.326553,75.4947904 102.872456,75.097659 102.537167,74.5507812 C102.201879,74.0039035 102.034238,73.3593787 102.034238,72.6171875 C102.034238,71.4257753 102.421604,70.5045605 103.196347,69.8535156 C103.971091,69.2024707 105.07785,68.8769531 106.51666,68.8769531 C106.822651,68.8769531 107.185603,68.9046221 107.605527,68.9599609 C108.025451,69.0152998 108.294003,69.0559895 108.411191,69.0820312 L112.219785,69.0820312 Z M103.79205,81.5429688 C103.79205,81.9531271 103.988988,82.2753895 104.382871,82.5097656 C104.776753,82.7441418 105.328505,82.8613281 106.038144,82.8613281 C107.105858,82.8613281 107.942438,82.7148452 108.54791,82.421875 C109.153381,82.1289048 109.456113,81.7285182 109.456113,81.2207031 C109.456113,80.8105448 109.277078,80.5273445 108.919003,80.3710938 C108.560929,80.214843 108.007549,80.1367188 107.258847,80.1367188 L105.715878,80.1367188 C105.169001,80.1367188 104.711648,80.2652982 104.343808,80.5224609 C103.975968,80.7796237 103.79205,81.1197896 103.79205,81.5429688 Z M104.876035,72.65625 C104.876035,73.2487009 105.011124,73.7174462 105.281308,74.0625 C105.551492,74.4075538 105.963271,74.5800781 106.51666,74.5800781 C107.076558,74.5800781 107.48671,74.4075538 107.747128,74.0625 C108.007546,73.7174462 108.137753,73.2487009 108.137753,72.65625 C108.137753,71.3411393 107.597394,70.6835938 106.51666,70.6835938 C105.422904,70.6835938 104.876035,71.3411393 104.876035,72.65625 Z M124.561451,80 L121.582936,80 L121.582936,73.6230469 C121.582936,72.0475182 120.997004,71.2597656 119.825123,71.2597656 C118.991786,71.2597656 118.389578,71.5429659 118.018483,72.109375 C117.647387,72.6757841 117.461842,73.5937437 117.461842,74.8632812 L117.461842,80 L114.483326,80 L114.483326,64.8046875 L117.461842,64.8046875 L117.461842,67.9003906 C117.461842,68.1412772 117.439056,68.7076778 117.393483,69.5996094 L117.325123,70.4785156 L117.481373,70.4785156 C118.145439,69.410802 119.200116,68.8769531 120.645436,68.8769531 C121.927994,68.8769531 122.901292,69.2220018 123.565358,69.9121094 C124.229424,70.602217 124.561451,71.5917904 124.561451,72.8808594 L124.561451,80 Z M132.694134,77.8222656 C133.21497,77.8222656 133.839964,77.7083345 134.569134,77.4804688 L134.569134,79.6972656 C133.826943,80.0292985 132.915493,80.1953125 131.834759,80.1953125 C130.643347,80.1953125 129.775842,79.8942087 129.23222,79.2919922 C128.688597,78.6897756 128.41679,77.7864644 128.41679,76.5820312 L128.41679,71.3183594 L126.991009,71.3183594 L126.991009,70.0585938 L128.631634,69.0625 L129.491009,66.7578125 L131.395306,66.7578125 L131.395306,69.0820312 L134.451946,69.0820312 L134.451946,71.3183594 L131.395306,71.3183594 L131.395306,76.5820312 C131.395306,77.0052104 131.51412,77.3177073 131.751751,77.5195312 C131.989383,77.7213552 132.303507,77.8222656 132.694134,77.8222656 Z M59.7193934,95.0371094 C58.5800647,95.0371094 57.6979121,95.465165 57.072909,96.3212891 C56.4479059,97.1774131 56.135409,98.3704351 56.135409,99.9003906 C56.135409,103.084 57.3300585,104.675781 59.7193934,104.675781 C60.7220025,104.675781 61.9361831,104.425133 63.3619715,103.923828 L63.3619715,106.462891 C62.1900906,106.951174 60.88151,107.195312 59.4361902,107.195312 C57.3593569,107.195312 55.7708311,106.565436 54.6705652,105.305664 C53.5702993,104.045892 53.0201746,102.237642 53.0201746,99.8808594 C53.0201746,98.396477 53.2903542,97.0960342 53.8307215,95.9794922 C54.3710888,94.8629501 55.1474482,94.0068389 56.159823,93.4111328 C57.1721979,92.8154267 58.3587095,92.5175781 59.7193934,92.5175781 C61.106119,92.5175781 62.4993343,92.8528612 63.8990809,93.5234375 L62.9225184,95.984375 C62.3886615,95.7304675 61.8515575,95.5091155 61.3111902,95.3203125 C60.7708229,95.1315095 60.2402293,95.0371094 59.7193934,95.0371094 Z M76.7094977,107 L73.730982,107 L73.730982,100.623047 C73.730982,99.0475182 73.1450504,98.2597656 71.9731695,98.2597656 C71.139832,98.2597656 70.5376245,98.5429659 70.1665289,99.109375 C69.7954333,99.6757841 69.6098883,100.593744 69.6098883,101.863281 L69.6098883,107 L66.6313727,107 L66.6313727,91.8046875 L69.6098883,91.8046875 L69.6098883,94.9003906 C69.6098883,95.1412772 69.5871021,95.7076778 69.5415289,96.5996094 L69.4731695,97.4785156 L69.6294195,97.4785156 C70.2934854,96.410802 71.3481623,95.8769531 72.793482,95.8769531 C74.0760405,95.8769531 75.0493381,96.2220018 75.7134039,96.9121094 C76.3774697,97.602217 76.7094977,98.5917904 76.7094977,99.8808594 L76.7094977,107 Z M82.6156176,101.521484 C82.6156176,102.602219 82.7930247,103.419268 83.1478442,103.972656 C83.5026637,104.526044 84.0804574,104.802734 84.8812426,104.802734 C85.6755174,104.802734 86.2468008,104.527672 86.5951098,103.977539 C86.9434188,103.427406 87.1175707,102.608729 87.1175707,101.521484 C87.1175707,100.44075 86.9417912,99.630211 86.590227,99.0898438 C86.2386627,98.5494765 85.6624966,98.2792969 84.8617114,98.2792969 C84.0674366,98.2792969 83.4945256,98.5478489 83.1429614,99.0849609 C82.7913971,99.622073 82.6156176,100.434239 82.6156176,101.521484 Z M90.1644457,101.521484 C90.1644457,103.298837 89.6957004,104.688797 88.7581957,105.691406 C87.8206911,106.694015 86.5153656,107.195312 84.8421801,107.195312 C83.7939978,107.195312 82.8695279,106.965823 82.0687426,106.506836 C81.2679574,106.047849 80.6527291,105.388676 80.2230395,104.529297 C79.7933498,103.669918 79.5785082,102.667323 79.5785082,101.521484 C79.5785082,99.7376213 80.0439984,98.3509164 80.9749926,97.3613281 C81.9059869,96.3717398 83.2145675,95.8769531 84.9007739,95.8769531 C85.9489562,95.8769531 86.8734261,96.1048154 87.6742114,96.5605469 C88.4749966,97.0162783 89.0902248,97.6705687 89.5199145,98.5234375 C89.9496041,99.3763063 90.1644457,100.375645 90.1644457,101.521484 Z M92.9650969,93.2597656 C92.9650969,92.2897087 93.5054561,91.8046875 94.5861907,91.8046875 C95.6669253,91.8046875 96.2072844,92.2897087 96.2072844,93.2597656 C96.2072844,93.7220075 96.0721946,94.0817044 95.802011,94.3388672 C95.5318274,94.5960299 95.126558,94.7246094 94.5861907,94.7246094 C93.5054561,94.7246094 92.9650969,94.236333 92.9650969,93.2597656 Z M96.0705657,107 L93.0920501,107 L93.0920501,96.0820312 L96.0705657,96.0820312 L96.0705657,107 Z M104.095826,107.195312 C100.697372,107.195312 98.99817,105.330097 98.99817,101.599609 C98.99817,99.7441313 99.460405,98.3265023 100.384889,97.3466797 C101.309373,96.3668571 102.634229,95.8769531 104.359498,95.8769531 C105.622525,95.8769531 106.755326,96.1243465 107.757936,96.6191406 L106.879029,98.9238281 C106.410277,98.7350251 105.974083,98.5804042 105.570436,98.4599609 C105.166788,98.3395176 104.763146,98.2792969 104.359498,98.2792969 C102.810011,98.2792969 102.035279,99.3795463 102.035279,101.580078 C102.035279,103.715505 102.810011,104.783203 104.359498,104.783203 C104.932418,104.783203 105.463011,104.706706 105.951295,104.553711 C106.439579,104.400715 106.927855,104.16146 107.416139,103.835938 L107.416139,106.384766 C106.934366,106.690757 106.447717,106.902343 105.956178,107.019531 C105.464639,107.136719 104.844528,107.195312 104.095826,107.195312 Z M114.933587,97.9960938 C114.302073,97.9960938 113.807287,98.1962871 113.449212,98.5966797 C113.091137,98.9970723 112.886061,99.5651005 112.833977,100.300781 L117.013665,100.300781 C117.000644,99.5651005 116.808589,98.9970723 116.437493,98.5966797 C116.066397,98.1962871 115.5651,97.9960938 114.933587,97.9960938 Z M115.353509,107.195312 C113.595687,107.195312 112.222003,106.710291 111.232415,105.740234 C110.242827,104.770177 109.74804,103.396493 109.74804,101.619141 C109.74804,99.7897044 110.205392,98.3753305 111.12011,97.3759766 C112.034828,96.3766226 113.299464,95.8769531 114.914056,95.8769531 C116.457032,95.8769531 117.658192,96.3164019 118.517571,97.1953125 C119.37695,98.0742231 119.806634,99.2884037 119.806634,100.837891 L119.806634,102.283203 L112.765618,102.283203 C112.79817,103.129562 113.048819,103.790362 113.517571,104.265625 C113.986324,104.740888 114.643869,104.978516 115.490227,104.978516 C116.147783,104.978516 116.769521,104.910157 117.355462,104.773438 C117.941402,104.636718 118.553375,104.418621 119.191399,104.119141 L119.191399,106.423828 C118.670563,106.684246 118.113928,106.877929 117.521477,107.004883 C116.929027,107.131837 116.206378,107.195312 115.353509,107.195312 Z" id="The-Right-Choice" fill="#FFFFFF"></path>
            </g>
        </g>
    </g>
</svg>