<?xml version="1.0" encoding="UTF-8"?>
<svg width="175px" height="175px" viewBox="0 0 175 175" version="1.1" xmlns="http://www.w3.org/2000/svg" xmlns:xlink="http://www.w3.org/1999/xlink">
    <!-- Generator: Sketch 43.1 (39012) - http://www.bohemiancoding.com/sketch -->
    <title>Group 7 Copy</title>
    <desc>Created with Sketch.</desc>
    <defs></defs>
    <g id="Page-2" stroke="none" stroke-width="1" fill="none" fill-rule="evenodd">
        <g id="Artboard-Copy" transform="translate(-517.000000, -886.000000)">
            <g id="Group-7-Copy" transform="translate(518.000000, 887.000000)">
                <circle id="Oval" stroke="#FFACA0" stroke-width="0.8" fill="#FFACA0" cx="86.5" cy="86.5" r="86.5"></circle>
                <path d="M44.6150963,80 L41.5877525,80 L41.5877525,68.2421875 L37.7107994,68.2421875 L37.7107994,65.7226562 L48.4920494,65.7226562 L48.4920494,68.2421875 L44.6150963,68.2421875 L44.6150963,80 Z M60.9997318,80 L58.0212162,80 L58.0212162,73.6230469 C58.0212162,72.0475182 57.4352846,71.2597656 56.2634037,71.2597656 C55.4300662,71.2597656 54.8278587,71.5429659 54.4567631,72.109375 C54.0856675,72.6757841 53.9001224,73.5937437 53.9001224,74.8632812 L53.9001224,80 L50.9216068,80 L50.9216068,64.8046875 L53.9001224,64.8046875 L53.9001224,67.9003906 C53.9001224,68.1412772 53.8773362,68.7076778 53.8317631,69.5996094 L53.7634037,70.4785156 L53.9196537,70.4785156 C54.5837195,69.410802 55.6383965,68.8769531 57.0837162,68.8769531 C58.3662747,68.8769531 59.3395723,69.2220018 60.0036381,69.9121094 C60.6677039,70.602217 60.9997318,71.5917904 60.9997318,72.8808594 L60.9997318,80 Z M69.0542893,70.9960938 C68.4227757,70.9960938 67.927989,71.1962871 67.5699143,71.5966797 C67.2118396,71.9970723 67.0067635,72.5651005 66.9546799,73.3007812 L71.1343674,73.3007812 C71.1213465,72.5651005 70.9292911,71.9970723 70.5581955,71.5966797 C70.1870999,71.1962871 69.6858028,70.9960938 69.0542893,70.9960938 Z M69.4742111,80.1953125 C67.7163898,80.1953125 66.3427057,79.7102913 65.3531174,78.7402344 C64.3635291,77.7701774 63.8687424,76.3964933 63.8687424,74.6191406 C63.8687424,72.7897044 64.3260946,71.3753305 65.2408127,70.3759766 C66.1555308,69.3766226 67.4201666,68.8769531 69.034758,68.8769531 C70.5777345,68.8769531 71.7788943,69.3164019 72.6382736,70.1953125 C73.4976529,71.0742231 73.9273361,72.2884037 73.9273361,73.8378906 L73.9273361,75.2832031 L66.8863205,75.2832031 C66.9188728,76.1295615 67.1695213,76.7903622 67.6382736,77.265625 C68.107026,77.7408878 68.7645715,77.9785156 69.6109299,77.9785156 C70.2684853,77.9785156 70.8902238,77.9101569 71.4761643,77.7734375 C72.0621047,77.6367181 72.6740777,77.4186213 73.3121018,77.1191406 L73.3121018,79.4238281 C72.7912658,79.6842461 72.2346308,79.8779291 71.6421799,80.0048828 C71.049729,80.1318366 70.32708,80.1953125 69.4742111,80.1953125 Z M85.739576,72.0605469 L86.7161385,72.0605469 C87.6731746,72.0605469 88.3795477,71.9010433 88.8352791,71.5820312 C89.2910106,71.2630192 89.5188729,70.7617222 89.5188729,70.078125 C89.5188729,69.4010383 89.2861278,68.9192723 88.8206307,68.6328125 C88.3551336,68.3463527 87.6341122,68.203125 86.6575448,68.203125 L85.739576,68.203125 L85.739576,72.0605469 Z M85.739576,74.5214844 L85.739576,80 L82.7122323,80 L82.7122323,65.7226562 L86.8723885,65.7226562 C88.8125024,65.7226562 90.2480349,66.0758428 91.1790291,66.7822266 C92.1100234,67.4886103 92.5755135,68.5611907 92.5755135,70 C92.5755135,70.8398479 92.344396,71.5869108 91.8821541,72.2412109 C91.4199123,72.8955111 90.7656219,73.4082013 89.9192635,73.7792969 C92.0677118,76.9889483 93.4674374,79.0624953 94.1184823,80 L90.7591073,80 L87.3509041,74.5214844 L85.739576,74.5214844 Z M96.020696,66.2597656 C96.020696,65.2897087 96.5610551,64.8046875 97.6417897,64.8046875 C98.7225243,64.8046875 99.2628835,65.2897087 99.2628835,66.2597656 C99.2628835,66.7220075 99.1277937,67.0817044 98.85761,67.3388672 C98.5874264,67.5960299 98.182157,67.7246094 97.6417897,67.7246094 C96.5610551,67.7246094 96.020696,67.236333 96.020696,66.2597656 Z M99.1261647,80 L96.1476491,80 L96.1476491,69.0820312 L99.1261647,69.0820312 L99.1261647,80 Z M112.219785,69.0820312 L112.219785,70.5957031 L110.5108,71.0351562 C110.823302,71.5234399 110.97955,72.0703095 110.97955,72.6757812 C110.97955,73.8476621 110.571026,74.7607389 109.753964,75.4150391 C108.936903,76.0693392 107.802474,76.3964844 106.350644,76.3964844 L105.813535,76.3671875 L105.374082,76.3183594 C105.06809,76.5527355 104.915097,76.8131496 104.915097,77.0996094 C104.915097,77.529299 105.461967,77.7441406 106.555722,77.7441406 L108.411191,77.7441406 C109.609114,77.7441406 110.52219,78.0012995 111.150449,78.515625 C111.778707,79.0299505 112.092832,79.7851513 112.092832,80.78125 C112.092832,82.057298 111.56061,83.0468715 110.496152,83.75 C109.431693,84.4531285 107.903388,84.8046875 105.911191,84.8046875 C104.387746,84.8046875 103.22402,84.5393907 102.41998,84.0087891 C101.615939,83.4781875 101.213925,82.7343798 101.213925,81.7773438 C101.213925,81.1197884 101.419001,80.5696637 101.82916,80.1269531 C102.239318,79.6842426 102.841525,79.3684905 103.6358,79.1796875 C103.329809,79.0494785 103.062885,78.8362645 102.835019,78.5400391 C102.607153,78.2438136 102.493222,77.9296892 102.493222,77.5976562 C102.493222,77.1809875 102.613664,76.8343113 102.85455,76.5576172 C103.095437,76.2809231 103.443741,76.0091159 103.899472,75.7421875 C103.326553,75.4947904 102.872456,75.097659 102.537167,74.5507812 C102.201879,74.0039035 102.034238,73.3593787 102.034238,72.6171875 C102.034238,71.4257753 102.421604,70.5045605 103.196347,69.8535156 C103.971091,69.2024707 105.07785,68.8769531 106.51666,68.8769531 C106.822651,68.8769531 107.185603,68.9046221 107.605527,68.9599609 C108.025451,69.0152998 108.294003,69.0559895 108.411191,69.0820312 L112.219785,69.0820312 Z M103.79205,81.5429688 C103.79205,81.9531271 103.988988,82.2753895 104.382871,82.5097656 C104.776753,82.7441418 105.328505,82.8613281 106.038144,82.8613281 C107.105858,82.8613281 107.942438,82.7148452 108.54791,82.421875 C109.153381,82.1289048 109.456113,81.7285182 109.456113,81.2207031 C109.456113,80.8105448 109.277078,80.5273445 108.919003,80.3710938 C108.560929,80.214843 108.007549,80.1367188 107.258847,80.1367188 L105.715878,80.1367188 C105.169001,80.1367188 104.711648,80.2652982 104.343808,80.5224609 C103.975968,80.7796237 103.79205,81.1197896 103.79205,81.5429688 Z M104.876035,72.65625 C104.876035,73.2487009 105.011124,73.7174462 105.281308,74.0625 C105.551492,74.4075538 105.963271,74.5800781 106.51666,74.5800781 C107.076558,74.5800781 107.48671,74.4075538 107.747128,74.0625 C108.007546,73.7174462 108.137753,73.2487009 108.137753,72.65625 C108.137753,71.3411393 107.597394,70.6835938 106.51666,70.6835938 C105.422904,70.6835938 104.876035,71.3411393 104.876035,72.65625 Z M124.561451,80 L121.582936,80 L121.582936,73.6230469 C121.582936,72.0475182 120.997004,71.2597656 119.825123,71.2597656 C118.991786,71.2597656 118.389578,71.5429659 118.018483,72.109375 C117.647387,72.6757841 117.461842,73.5937437 117.461842,74.8632812 L117.461842,80 L114.483326,80 L114.483326,64.8046875 L117.461842,64.8046875 L117.461842,67.9003906 C117.461842,68.1412772 117.439056,68.7076778 117.393483,69.5996094 L117.325123,70.4785156 L117.481373,70.4785156 C118.145439,69.410802 119.200116,68.8769531 120.645436,68.8769531 C121.927994,68.8769531 122.901292,69.2220018 123.565358,69.9121094 C124.229424,70.602217 124.561451,71.5917904 124.561451,72.8808594 L124.561451,80 Z M132.694134,77.8222656 C133.21497,77.8222656 133.839964,77.7083345 134.569134,77.4804688 L134.569134,79.6972656 C133.826943,80.0292985 132.915493,80.1953125 131.834759,80.1953125 C130.643347,80.1953125 129.775842,79.8942087 129.23222,79.2919922 C128.688597,78.6897756 128.41679,77.7864644 128.41679,76.5820312 L128.41679,71.3183594 L126.991009,71.3183594 L126.991009,70.0585938 L128.631634,69.0625 L129.491009,66.7578125 L131.395306,66.7578125 L131.395306,69.0820312 L134.451946,69.0820312 L134.451946,71.3183594 L131.395306,71.3183594 L131.395306,76.5820312 C131.395306,77.0052104 131.51412,77.3177073 131.751751,77.5195312 C131.989383,77.7213552 132.303507,77.8222656 132.694134,77.8222656 Z M29.9052654,95.0371094 C28.7659368,95.0371094 27.8837841,95.465165 27.258781,96.3212891 C26.6337779,97.1774131 26.321281,98.3704351 26.321281,99.9003906 C26.321281,103.084 27.5159305,104.675781 29.9052654,104.675781 C30.9078746,104.675781 32.1220551,104.425133 33.5478435,103.923828 L33.5478435,106.462891 C32.3759626,106.951174 31.067382,107.195312 29.6220622,107.195312 C27.5452289,107.195312 25.9567032,106.565436 24.8564372,105.305664 C23.7561713,104.045892 23.2060466,102.237642 23.2060466,99.8808594 C23.2060466,98.396477 23.4762262,97.0960342 24.0165935,95.9794922 C24.5569608,94.8629501 25.3333202,94.0068389 26.3456951,93.4111328 C27.3580699,92.8154267 28.5445815,92.5175781 29.9052654,92.5175781 C31.2919911,92.5175781 32.6852063,92.8528612 34.0849529,93.5234375 L33.1083904,95.984375 C32.5745335,95.7304675 32.0374295,95.5091155 31.4970622,95.3203125 C30.956695,95.1315095 30.4261013,95.0371094 29.9052654,95.0371094 Z M39.1902916,101.521484 C39.1902916,102.602219 39.3676986,103.419268 39.7225181,103.972656 C40.0773376,104.526044 40.6551313,104.802734 41.4559166,104.802734 C42.2501914,104.802734 42.8214747,104.527672 43.1697838,103.977539 C43.5180928,103.427406 43.6922447,102.608729 43.6922447,101.521484 C43.6922447,100.44075 43.5164652,99.630211 43.1649009,99.0898438 C42.8133367,98.5494765 42.2371706,98.2792969 41.4363853,98.2792969 C40.6421105,98.2792969 40.0691996,98.5478489 39.7176353,99.0849609 C39.3660711,99.622073 39.1902916,100.434239 39.1902916,101.521484 Z M46.7391197,101.521484 C46.7391197,103.298837 46.2703744,104.688797 45.3328697,105.691406 C44.395365,106.694015 43.0900395,107.195312 41.4168541,107.195312 C40.3686717,107.195312 39.4442018,106.965823 38.6434166,106.506836 C37.8426313,106.047849 37.2274031,105.388676 36.7977134,104.529297 C36.3680238,103.669918 36.1531822,102.667323 36.1531822,101.521484 C36.1531822,99.7376213 36.6186723,98.3509164 37.5496666,97.3613281 C38.4806608,96.3717398 39.7892415,95.8769531 41.4754478,95.8769531 C42.5236301,95.8769531 43.4481001,96.1048154 44.2488853,96.5605469 C45.0496706,97.0162783 45.6648988,97.6705687 46.0945884,98.5234375 C46.5242781,99.3763063 46.7391197,100.375645 46.7391197,101.521484 Z M59.744849,107 L56.7663334,107 L56.7663334,100.623047 C56.7663334,99.8352825 56.6263608,99.2444681 56.3464115,98.8505859 C56.0664622,98.4567038 55.6205031,98.2597656 55.0085209,98.2597656 C54.1751834,98.2597656 53.5729759,98.5380832 53.2018803,99.0947266 C52.8307847,99.65137 52.6452396,100.574212 52.6452396,101.863281 L52.6452396,107 L49.666724,107 L49.666724,96.0820312 L51.9421146,96.0820312 L52.3425053,97.4785156 L52.5085209,97.4785156 C52.8405538,96.9511692 53.297906,96.5524102 53.8805912,96.2822266 C54.4632764,96.0120429 55.1257047,95.8769531 55.8678959,95.8769531 C57.1374335,95.8769531 58.1009655,96.2203742 58.7585209,96.9072266 C59.4160763,97.594079 59.744849,98.58528 59.744849,99.8808594 L59.744849,107 Z M73.3560471,107 L70.3775315,107 L70.3775315,100.623047 C70.3775315,99.8352825 70.2375589,99.2444681 69.9576096,98.8505859 C69.6776603,98.4567038 69.2317012,98.2597656 68.619719,98.2597656 C67.7863815,98.2597656 67.1841739,98.5380832 66.8130783,99.0947266 C66.4419827,99.65137 66.2564377,100.574212 66.2564377,101.863281 L66.2564377,107 L63.2779221,107 L63.2779221,96.0820312 L65.5533127,96.0820312 L65.9537033,97.4785156 L66.119719,97.4785156 C66.4517519,96.9511692 66.9091041,96.5524102 67.4917893,96.2822266 C68.0744745,96.0120429 68.7369027,95.8769531 69.479094,95.8769531 C70.7486315,95.8769531 71.7121636,96.2203742 72.369719,96.9072266 C73.0272743,97.594079 73.3560471,98.58528 73.3560471,99.8808594 L73.3560471,107 Z M81.4106045,97.9960938 C80.7790909,97.9960938 80.2843042,98.1962871 79.9262295,98.5966797 C79.5681548,98.9970723 79.3630787,99.5651005 79.3109951,100.300781 L83.4906826,100.300781 C83.4776617,99.5651005 83.2856064,98.9970723 82.9145108,98.5966797 C82.5434152,98.1962871 82.0421181,97.9960938 81.4106045,97.9960938 Z M81.8305264,107.195312 C80.0727051,107.195312 78.6990209,106.710291 77.7094326,105.740234 C76.7198444,104.770177 76.2250576,103.396493 76.2250576,101.619141 C76.2250576,99.7897044 76.6824098,98.3753305 77.597128,97.3759766 C78.5118461,96.3766226 79.7764819,95.8769531 81.3910733,95.8769531 C82.9340497,95.8769531 84.1352096,96.3164019 84.9945889,97.1953125 C85.8539682,98.0742231 86.2836514,99.2884037 86.2836514,100.837891 L86.2836514,102.283203 L79.2426358,102.283203 C79.275188,103.129562 79.5258366,103.790362 79.9945889,104.265625 C80.4633412,104.740888 81.1208867,104.978516 81.9672451,104.978516 C82.6248005,104.978516 83.2465391,104.910157 83.8324795,104.773438 C84.4184199,104.636718 85.030393,104.418621 85.668417,104.119141 L85.668417,106.423828 C85.1475811,106.684246 84.590946,106.877929 83.9984951,107.004883 C83.4060443,107.131837 82.6833952,107.195312 81.8305264,107.195312 Z M93.605787,107.195312 C90.2073325,107.195312 88.5081307,105.330097 88.5081307,101.599609 C88.5081307,99.7441313 88.9703657,98.3265023 89.8948495,97.3466797 C90.8193333,96.3668571 92.1441898,95.8769531 93.8694588,95.8769531 C95.132486,95.8769531 96.2652872,96.1243465 97.2678963,96.6191406 L96.3889901,98.9238281 C95.9202377,98.7350251 95.4840442,98.5804042 95.0803963,98.4599609 C94.6767485,98.3395176 94.2731067,98.2792969 93.8694588,98.2792969 C92.3199719,98.2792969 91.5452401,99.3795463 91.5452401,101.580078 C91.5452401,103.715505 92.3199719,104.783203 93.8694588,104.783203 C94.4423784,104.783203 94.972972,104.706706 95.4612557,104.553711 C95.9495394,104.400715 96.4378158,104.16146 96.9260995,103.835938 L96.9260995,106.384766 C96.4443262,106.690757 95.9576774,106.902343 95.4661385,107.019531 C94.9745996,107.136719 94.3544886,107.195312 93.605787,107.195312 Z M104.521673,104.822266 C105.042508,104.822266 105.667502,104.708334 106.396673,104.480469 L106.396673,106.697266 C105.654481,107.029299 104.743032,107.195312 103.662298,107.195312 C102.470885,107.195312 101.603381,106.894209 101.059758,106.291992 C100.516136,105.689776 100.244329,104.786464 100.244329,103.582031 L100.244329,98.3183594 L98.8185475,98.3183594 L98.8185475,97.0585938 L100.459173,96.0625 L101.318548,93.7578125 L103.222844,93.7578125 L103.222844,96.0820312 L106.279485,96.0820312 L106.279485,98.3183594 L103.222844,98.3183594 L103.222844,103.582031 C103.222844,104.00521 103.341658,104.317707 103.57929,104.519531 C103.816921,104.721355 104.131046,104.822266 104.521673,104.822266 Z M108.943417,93.2597656 C108.943417,92.2897087 109.483777,91.8046875 110.564511,91.8046875 C111.645246,91.8046875 112.185605,92.2897087 112.185605,93.2597656 C112.185605,93.7220075 112.050515,94.0817044 111.780332,94.3388672 C111.510148,94.5960299 111.104879,94.7246094 110.564511,94.7246094 C109.483777,94.7246094 108.943417,94.236333 108.943417,93.2597656 Z M112.048886,107 L109.070371,107 L109.070371,96.0820312 L112.048886,96.0820312 L112.048886,107 Z M118.0136,101.521484 C118.0136,102.602219 118.191007,103.419268 118.545826,103.972656 C118.900646,104.526044 119.47844,104.802734 120.279225,104.802734 C121.0735,104.802734 121.644783,104.527672 121.993092,103.977539 C122.341401,103.427406 122.515553,102.608729 122.515553,101.521484 C122.515553,100.44075 122.339774,99.630211 121.988209,99.0898438 C121.636645,98.5494765 121.060479,98.2792969 120.259694,98.2792969 C119.465419,98.2792969 118.892508,98.5478489 118.540944,99.0849609 C118.189379,99.622073 118.0136,100.434239 118.0136,101.521484 Z M125.562428,101.521484 C125.562428,103.298837 125.093683,104.688797 124.156178,105.691406 C123.218673,106.694015 121.913348,107.195312 120.240162,107.195312 C119.19198,107.195312 118.26751,106.965823 117.466725,106.506836 C116.66594,106.047849 116.050711,105.388676 115.621022,104.529297 C115.191332,103.669918 114.976491,102.667323 114.976491,101.521484 C114.976491,99.7376213 115.441981,98.3509164 116.372975,97.3613281 C117.303969,96.3717398 118.61255,95.8769531 120.298756,95.8769531 C121.346938,95.8769531 122.271408,96.1048154 123.072194,96.5605469 C123.872979,97.0162783 124.488207,97.6705687 124.917897,98.5234375 C125.347586,99.3763063 125.562428,100.375645 125.562428,101.521484 Z M138.568157,107 L135.589642,107 L135.589642,100.623047 C135.589642,99.8352825 135.449669,99.2444681 135.16972,98.8505859 C134.889771,98.4567038 134.443811,98.2597656 133.831829,98.2597656 C132.998492,98.2597656 132.396284,98.5380832 132.025189,99.0947266 C131.654093,99.65137 131.468548,100.574212 131.468548,101.863281 L131.468548,107 L128.490032,107 L128.490032,96.0820312 L130.765423,96.0820312 L131.165814,97.4785156 L131.331829,97.4785156 C131.663862,96.9511692 132.121214,96.5524102 132.7039,96.2822266 C133.286585,96.0120429 133.949013,95.8769531 134.691204,95.8769531 C135.960742,95.8769531 136.924274,96.2203742 137.581829,96.9072266 C138.239385,97.594079 138.568157,98.58528 138.568157,99.8808594 L138.568157,107 Z M149.718418,103.757812 C149.718418,104.87761 149.329424,105.730466 148.551426,106.316406 C147.773427,106.902347 146.609702,107.195312 145.060215,107.195312 C144.26594,107.195312 143.588863,107.141602 143.028965,107.03418 C142.469066,106.926757 141.944983,106.768881 141.456699,106.560547 L141.456699,104.099609 C142.010087,104.360027 142.633454,104.578124 143.326816,104.753906 C144.020179,104.929688 144.630525,105.017578 145.157871,105.017578 C146.238606,105.017578 146.778965,104.705081 146.778965,104.080078 C146.778965,103.845702 146.707351,103.655274 146.564121,103.508789 C146.420891,103.362304 146.173498,103.19629 145.821934,103.010742 C145.470369,102.825194 145.001624,102.608725 144.415684,102.361328 C143.575836,102.009764 142.95898,101.684246 142.565098,101.384766 C142.171215,101.085285 141.88476,100.741864 141.705723,100.354492 C141.526685,99.9671205 141.437168,99.4902372 141.437168,98.9238281 C141.437168,97.9537712 141.813141,97.2034532 142.565098,96.6728516 C143.317054,96.14225 144.383125,95.8769531 145.76334,95.8769531 C147.078451,95.8769531 148.357735,96.1634086 149.60123,96.7363281 L148.702793,98.8847656 C148.155915,98.6503895 147.644853,98.4583341 147.16959,98.3085938 C146.694327,98.1588534 146.209306,98.0839844 145.714512,98.0839844 C144.835601,98.0839844 144.396152,98.3216122 144.396152,98.796875 C144.396152,99.0638034 144.537752,99.2949209 144.820957,99.4902344 C145.104162,99.6855479 145.724273,99.9752585 146.681309,100.359375 C147.534177,100.704429 148.159171,101.026691 148.556309,101.326172 C148.953446,101.625653 149.246412,101.970701 149.435215,102.361328 C149.624018,102.751955 149.718418,103.217445 149.718418,103.757812 Z" id="The-Right-Connection" fill="#FFFFFF"></path>
            </g>
        </g>
    </g>
</svg>