<?xml version="1.0" encoding="UTF-8"?>
<svg width="175px" height="175px" viewBox="0 0 175 175" version="1.1" xmlns="http://www.w3.org/2000/svg" xmlns:xlink="http://www.w3.org/1999/xlink">
    <!-- Generator: Sketch 43.1 (39012) - http://www.bohemiancoding.com/sketch -->
    <title>Group 7</title>
    <desc>Created with Sketch.</desc>
    <defs></defs>
    <g id="Page-2" stroke="none" stroke-width="1" fill="none" fill-rule="evenodd">
        <g id="Artboard-Copy" transform="translate(-82.000000, -1310.000000)">
            <g id="Group-7" transform="translate(83.000000, 1311.000000)">
                <circle id="Oval" stroke="#FFACA0" stroke-width="0.8" fill="#FFACA0" cx="86.5" cy="86.5" r="86.5"></circle>
                <path d="M38.6658423,75.8555556 L34.8549048,75.8555556 L34.8549048,58.6571181 L30.9174048,58.6571181 L30.9174048,55.2961806 L42.6033423,55.2961806 L42.6033423,58.6571181 L38.6658423,58.6571181 L38.6658423,75.8555556 Z M53.0487802,75.8555556 L53.0487802,66.5180556 C53.0487802,64.2211691 52.4722234,63.0727431 51.3190927,63.0727431 C50.4565883,63.0727431 49.8519069,63.5250823 49.5050302,64.4297743 C49.1581534,65.3344663 48.9847177,66.6352346 48.9847177,68.3321181 L48.9847177,75.8555556 L45.2440927,75.8555556 L45.2440927,53.9743056 L48.9847177,53.9743056 L48.9847177,58.8399306 C48.9847177,59.4680587 48.9284682,60.58836 48.8159677,62.2008681 L49.0128427,62.2008681 C49.7628464,60.6633604 50.9159599,59.8946181 52.4722177,59.8946181 C53.9065998,59.8946181 54.9894015,60.3797695 55.7206552,61.3500868 C56.4519088,62.3204042 56.8175302,63.7477336 56.8175302,65.6321181 L56.8175302,75.8555556 L53.0487802,75.8555556 Z M66.2926555,76.1368056 C64.3332707,76.1368056 62.7887549,75.4407188 61.6590617,74.0485243 C60.5293686,72.6563298 59.9645305,70.6852558 59.9645305,68.1352431 C59.9645305,65.5477301 60.4754629,63.5274378 61.497343,62.0743056 C62.5192231,60.6211733 63.9442088,59.8946181 65.772343,59.8946181 C67.4786015,59.8946181 68.8239005,60.5157056 69.8082805,61.7578993 C70.7926604,63.000093 71.284843,64.7414819 71.284843,66.9821181 L71.284843,68.9789931 L63.7614055,68.9789931 C63.7895306,70.375875 64.0754652,71.4141459 64.619218,72.0938368 C65.1629707,72.7735277 65.9129632,73.1133681 66.869218,73.1133681 C68.0879741,73.1133681 69.3348366,72.7336844 70.609843,71.9743056 L70.609843,75.0539931 C69.409837,75.7758717 67.9707889,76.1368056 66.2926555,76.1368056 Z M65.744218,62.7774306 C65.2098403,62.7774306 64.7692197,63.0610215 64.422343,63.6282118 C64.0754662,64.1954021 63.8739057,65.0742996 63.8176555,66.2649306 L67.6145305,66.2649306 C67.5957804,65.1211748 67.4223446,64.253996 67.094218,63.6633681 C66.7660913,63.0727401 66.3160958,62.7774306 65.744218,62.7774306 Z M86.2694686,67.8539931 L86.2694686,75.8555556 L82.4444686,75.8555556 L82.4444686,55.2961806 L87.4507186,55.2961806 C89.5694792,55.2961806 91.1327448,55.797738 92.1405623,56.8008681 C93.1483799,57.8039981 93.6522811,59.3367952 93.6522811,61.3993056 C93.6522811,63.9961935 92.7757274,65.8102379 91.0225936,66.8414931 L94.9741561,75.8555556 L90.8819686,75.8555556 L87.6335311,67.8539931 L86.2694686,67.8539931 Z M86.2694686,64.5633681 L87.2538436,64.5633681 C88.1538481,64.5633681 88.8007166,64.3079019 89.1944686,63.7969618 C89.5882206,63.2860218 89.7850936,62.5243106 89.7850936,61.5118056 C89.7850936,60.4618003 89.5765019,59.7141515 89.1593123,59.2688368 C88.7421228,58.8235221 88.097598,58.6008681 87.2257186,58.6008681 L86.2694686,58.6008681 L86.2694686,64.5633681 Z M101.060219,75.8555556 L97.3195939,75.8555556 L97.3195939,60.1899306 L101.060219,60.1899306 L101.060219,75.8555556 Z M97.1649064,56.0977431 C97.1649064,55.47899 97.3453734,54.9891511 97.7063127,54.6282118 C98.067252,54.2672725 98.5711532,54.0868056 99.2180314,54.0868056 C99.8274095,54.0868056 100.314905,54.2672725 100.680531,54.6282118 C101.046158,54.9891511 101.228969,55.47899 101.228969,56.0977431 C101.228969,56.7352462 101.041471,57.2297725 100.666469,57.5813368 C100.291467,57.9329011 99.8086594,58.1086806 99.2180314,58.1086806 C98.5992783,58.1086806 98.1024083,57.9329011 97.7274064,57.5813368 C97.3524045,57.2297725 97.1649064,56.7352462 97.1649064,56.0977431 Z M116.216594,60.2180556 L116.216594,62.4118056 L114.346282,62.8336806 C114.711909,63.4899338 114.894719,64.3149256 114.894719,65.3086806 C114.894719,66.9680639 114.444724,68.2664884 113.544719,69.2039931 C112.644715,70.1414977 111.388477,70.6102431 109.775969,70.6102431 C109.307217,70.6102431 108.960345,70.5727434 108.735344,70.4977431 C108.557218,70.6571189 108.38847,70.8352421 108.229094,71.0321181 C108.069718,71.228994 107.990032,71.4727416 107.990032,71.7633681 C107.990032,72.4196213 108.557214,72.7477431 109.691594,72.7477431 L111.955657,72.7477431 C113.286913,72.7477431 114.311122,73.1063332 115.028313,73.8235243 C115.745504,74.5407154 116.104094,75.6211733 116.104094,77.0649306 C116.104094,78.8836896 115.494725,80.2899256 114.275969,81.2836806 C113.057213,82.2774355 111.304106,82.7743056 109.016594,82.7743056 C107.282211,82.7743056 105.946286,82.3969656 105.008782,81.6422743 C104.071277,80.887583 103.602532,79.8118125 103.602532,78.4149306 C103.602532,77.5430512 103.869717,76.7766526 104.404094,76.1157118 C104.938472,75.454771 105.679089,74.9743071 106.625969,74.6743056 C106.147842,74.4868046 105.756439,74.1961825 105.45175,73.8024306 C105.147061,73.4086786 104.994719,72.9493082 104.994719,72.4243056 C104.994719,72.105554 105.041594,71.8172756 105.135344,71.5594618 C105.229095,71.301648 105.362687,71.0579005 105.536125,70.8282118 C105.709564,70.5985232 106.063467,70.2586828 106.597844,69.8086806 C105.950966,69.4149286 105.440034,68.8102471 105.065032,67.9946181 C104.69003,67.178989 104.502532,66.2743105 104.502532,65.2805556 C104.502532,63.564922 104.952527,62.2383727 105.852532,61.3008681 C106.752536,60.3633634 108.041586,59.8946181 109.719719,59.8946181 C110.038471,59.8946181 110.404092,59.929774 110.816594,60.0000868 C111.229096,60.0703997 111.543156,60.1430552 111.758782,60.2180556 L116.216594,60.2180556 Z M107.005657,78.1336806 C107.005657,78.7524336 107.200186,79.2282101 107.58925,79.5610243 C107.978315,79.8938385 108.533778,80.0602431 109.255657,80.0602431 C110.390037,80.0602431 111.24081,79.8446202 111.808,79.4133681 C112.375191,78.9821159 112.658782,78.3914968 112.658782,77.6414931 C112.658782,77.0508651 112.506439,76.6336818 112.20175,76.3899306 C111.897061,76.1461793 111.327536,76.0243056 110.493157,76.0243056 L108.679094,76.0243056 C108.172842,76.0243056 107.767377,76.2141474 107.462688,76.5938368 C107.157999,76.9735262 107.005657,77.4868023 107.005657,78.1336806 Z M108.158782,65.3086806 C108.158782,67.1555648 108.679089,68.0789931 109.719719,68.0789931 C110.732224,68.0789931 111.238469,67.1461899 111.238469,65.2805556 C111.238469,63.368046 110.732224,62.4118056 109.719719,62.4118056 C108.679089,62.4118056 108.158782,63.3774209 108.158782,65.3086806 Z M126.577657,75.8555556 L126.577657,66.5180556 C126.577657,64.2211691 126.0011,63.0727431 124.84797,63.0727431 C123.985465,63.0727431 123.380784,63.5250823 123.033907,64.4297743 C122.68703,65.3344663 122.513595,66.6352346 122.513595,68.3321181 L122.513595,75.8555556 L118.77297,75.8555556 L118.77297,53.9743056 L122.513595,53.9743056 L122.513595,58.8399306 C122.513595,59.4680587 122.457345,60.58836 122.344845,62.2008681 L122.54172,62.2008681 C123.291723,60.6633604 124.444837,59.8946181 126.001095,59.8946181 C127.435477,59.8946181 128.518278,60.3797695 129.249532,61.3500868 C129.980786,62.3204042 130.346407,63.7477336 130.346407,65.6321181 L130.346407,75.8555556 L126.577657,75.8555556 Z M139.484032,72.9727431 C140.009035,72.9727431 140.576217,72.8414944 141.185595,72.5789931 L141.185595,75.5039931 C140.576217,75.9258702 139.662163,76.1368056 138.443407,76.1368056 C137.084026,76.1368056 136.076223,75.7313409 135.41997,74.9203993 C134.763717,74.1094578 134.435595,72.8930637 134.435595,71.2711806 L134.435595,63.1571181 L132.916845,63.1571181 L132.916845,61.4836806 L134.871532,60.1336806 L135.827782,56.8149306 L138.218407,56.8149306 L138.218407,60.1899306 L141.059032,60.1899306 L141.059032,63.1571181 L138.218407,63.1571181 L138.218407,71.3977431 C138.218407,72.4477483 138.640278,72.9727431 139.484032,72.9727431 Z M23.1368108,91.1477431 C22.0399303,91.1477431 21.1750952,91.7899241 20.5422795,93.0743056 C19.9094639,94.358687 19.5930608,96.1446066 19.5930608,98.4321181 C19.5930608,103.194642 20.8352359,105.575868 23.3196233,105.575868 C24.4071287,105.575868 25.5461798,105.228997 26.7368108,104.535243 L26.7368108,107.938368 C25.7336808,108.603996 24.4493186,108.936806 22.8836858,108.936806 C20.5680492,108.936806 18.7891607,108.015721 17.546967,106.173524 C16.3047733,104.331328 15.6836858,101.74151 15.6836858,98.4039931 C15.6836858,95.0664764 16.3235231,92.4649399 17.603217,90.5993056 C18.8829109,88.7336712 20.6617994,87.8008681 22.9399358,87.8008681 C23.6899395,87.8008681 24.4094636,87.903992 25.0985295,88.1102431 C25.7875955,88.3164941 26.5258693,88.677428 27.3133733,89.1930556 L26.0477483,92.3008681 C25.6258712,92.0102416 25.1758757,91.7454005 24.6977483,91.5063368 C24.2196209,91.2672731 23.6993136,91.1477431 23.1368108,91.1477431 Z M41.6963111,100.794618 C41.6963111,103.363381 41.1525665,105.36258 40.0650611,106.792274 C38.9775557,108.221969 37.4869456,108.936806 35.5931861,108.936806 C34.3931801,108.936806 33.3338157,108.608684 32.4150611,107.952431 C31.4963065,107.296177 30.7885011,106.351655 30.2916236,105.118837 C29.7947461,103.886018 29.5463111,102.444626 29.5463111,100.794618 C29.5463111,98.2539804 30.0853682,96.268844 31.1634986,94.8391493 C32.241629,93.4094547 33.7369265,92.6946181 35.6494361,92.6946181 C37.4963203,92.6946181 38.9658369,93.423517 40.0580298,94.8813368 C41.1502228,96.3391566 41.6963111,98.3102306 41.6963111,100.794618 Z M33.3713111,100.794618 C33.3713111,102.425876 33.5494343,103.658676 33.9056861,104.493056 C34.2619379,105.327435 34.8338072,105.744618 35.6213111,105.744618 C37.1213186,105.744618 37.8713111,104.094635 37.8713111,100.794618 C37.8713111,99.1539849 37.6908441,97.9282159 37.3299048,97.1172743 C36.9689655,96.3063328 36.39944,95.9008681 35.6213111,95.9008681 C34.8338072,95.9008681 34.2619379,96.3063328 33.9056861,97.1172743 C33.5494343,97.9282159 33.3713111,99.1539849 33.3713111,100.794618 Z M52.8026864,108.655556 L52.8026864,99.3180556 C52.8026864,98.1836749 52.6667503,97.325871 52.3948739,96.7446181 C52.1229975,96.1633651 51.682377,95.8727431 51.0729989,95.8727431 C50.2667449,95.8727431 49.6761258,96.2735203 49.3011239,97.0750868 C48.926122,97.8766533 48.7386239,99.2289835 48.7386239,101.132118 L48.7386239,108.655556 L44.9979989,108.655556 L44.9979989,92.9899306 L47.9651864,92.9899306 L48.4151864,95.0008681 L48.6542489,95.0008681 C48.9917506,94.2789894 49.4745583,93.7141513 50.1026864,93.3063368 C50.7308145,92.8985223 51.4667447,92.6946181 52.3104989,92.6946181 C53.735506,92.6946181 54.8019016,93.1821132 55.5097177,94.1571181 C56.2175337,95.1321229 56.5714364,96.5571087 56.5714364,98.4321181 L56.5714364,108.655556 L52.8026864,108.655556 Z M68.0715617,108.655556 L68.0715617,99.3180556 C68.0715617,98.1836749 67.9356256,97.325871 67.6637492,96.7446181 C67.3918729,96.1633651 66.9512523,95.8727431 66.3418742,95.8727431 C65.5356202,95.8727431 64.9450011,96.2735203 64.5699992,97.0750868 C64.1949973,97.8766533 64.0074992,99.2289835 64.0074992,101.132118 L64.0074992,108.655556 L60.2668742,108.655556 L60.2668742,92.9899306 L63.2340617,92.9899306 L63.6840617,95.0008681 L63.9231242,95.0008681 C64.2606259,94.2789894 64.7434336,93.7141513 65.3715617,93.3063368 C65.9996899,92.8985223 66.73562,92.6946181 67.5793742,92.6946181 C69.0043813,92.6946181 70.0707769,93.1821132 70.778593,94.1571181 C71.486409,95.1321229 71.8403117,96.5571087 71.8403117,98.4321181 L71.8403117,108.655556 L68.0715617,108.655556 Z M81.315437,108.936806 C79.3560522,108.936806 77.8115364,108.240719 76.6818433,106.848524 C75.5521501,105.45633 74.987312,103.485256 74.987312,100.935243 C74.987312,98.3477301 75.4982444,96.3274378 76.5201245,94.8743056 C77.5420046,93.4211733 78.9669904,92.6946181 80.7951245,92.6946181 C82.5013831,92.6946181 83.8466821,93.3157056 84.831062,94.5578993 C85.815442,95.800093 86.3076245,97.5414819 86.3076245,99.7821181 L86.3076245,101.778993 L78.784187,101.778993 C78.8123122,103.175875 79.0982468,104.214146 79.6419995,104.893837 C80.1857522,105.573528 80.9357447,105.913368 81.8919995,105.913368 C83.1107556,105.913368 84.3576182,105.533684 85.6326245,104.774306 L85.6326245,107.853993 C84.4326185,108.575872 82.9935704,108.936806 81.315437,108.936806 Z M80.7669995,95.5774306 C80.2326219,95.5774306 79.7920013,95.8610215 79.4451245,96.4282118 C79.0982478,96.9954021 78.8966873,97.8742996 78.840437,99.0649306 L82.637312,99.0649306 C82.6185619,97.9211748 82.4451262,97.053996 82.1169995,96.4633681 C81.7888729,95.8727401 81.3388774,95.5774306 80.7669995,95.5774306 Z M94.6296248,108.936806 C92.7639905,108.936806 91.3436922,108.257125 90.3686873,106.897743 C89.3936825,105.538361 88.9061873,103.541506 88.9061873,100.907118 C88.9061873,98.1508543 89.3679015,96.0930624 90.2913436,94.7336806 C91.2147857,93.3742988 92.6421152,92.6946181 94.5733748,92.6946181 C95.1546277,92.6946181 95.7639967,92.7789922 96.4014998,92.9477431 C97.039003,93.1164939 97.6108723,93.3602415 98.1171248,93.6789931 L97.0483748,96.5899306 C96.270246,96.1305533 95.5811903,95.9008681 94.9811873,95.9008681 C94.1843084,95.9008681 93.6100954,96.3157077 93.2585311,97.1453993 C92.9069668,97.975091 92.7311873,99.2196098 92.7311873,100.878993 C92.7311873,102.500876 92.9046231,103.712583 93.2514998,104.514149 C93.5983766,105.315716 94.1655584,105.716493 94.9530623,105.716493 C95.890567,105.716493 96.8702447,105.388371 97.8921248,104.732118 L97.8921248,108.022743 C96.9077449,108.632121 95.8202558,108.936806 94.6296248,108.936806 Z M106.256313,105.772743 C106.781315,105.772743 107.348497,105.641494 107.957875,105.378993 L107.957875,108.303993 C107.348497,108.72587 106.434444,108.936806 105.215688,108.936806 C103.856306,108.936806 102.848503,108.531341 102.19225,107.720399 C101.535997,106.909458 101.207875,105.693064 101.207875,104.071181 L101.207875,95.9571181 L99.6891252,95.9571181 L99.6891252,94.2836806 L101.643813,92.9336806 L102.600063,89.6149306 L104.990688,89.6149306 L104.990688,92.9899306 L107.831313,92.9899306 L107.831313,95.9571181 L104.990688,95.9571181 L104.990688,104.197743 C104.990688,105.247748 105.412558,105.772743 106.256313,105.772743 Z M114.592375,108.655556 L110.85175,108.655556 L110.85175,92.9899306 L114.592375,92.9899306 L114.592375,108.655556 Z M110.697063,88.8977431 C110.697063,88.27899 110.87753,87.7891511 111.238469,87.4282118 C111.599409,87.0672725 112.10331,86.8868056 112.750188,86.8868056 C113.359566,86.8868056 113.847061,87.0672725 114.212688,87.4282118 C114.578315,87.7891511 114.761125,88.27899 114.761125,88.8977431 C114.761125,89.5352462 114.573627,90.0297725 114.198625,90.3813368 C113.823624,90.7329011 113.340816,90.9086806 112.750188,90.9086806 C112.131435,90.9086806 111.634565,90.7329011 111.259563,90.3813368 C110.884561,90.0297725 110.697063,89.5352462 110.697063,88.8977431 Z M130.072188,100.794618 C130.072188,103.363381 129.528444,105.36258 128.440938,106.792274 C127.353433,108.221969 125.862823,108.936806 123.969063,108.936806 C122.769057,108.936806 121.709693,108.608684 120.790938,107.952431 C119.872184,107.296177 119.164378,106.351655 118.667501,105.118837 C118.170623,103.886018 117.922188,102.444626 117.922188,100.794618 C117.922188,98.2539804 118.461245,96.268844 119.539376,94.8391493 C120.617506,93.4094547 122.112804,92.6946181 124.025313,92.6946181 C125.872198,92.6946181 127.341714,93.423517 128.433907,94.8813368 C129.5261,96.3391566 130.072188,98.3102306 130.072188,100.794618 Z M121.747188,100.794618 C121.747188,102.425876 121.925312,103.658676 122.281563,104.493056 C122.637815,105.327435 123.209684,105.744618 123.997188,105.744618 C125.497196,105.744618 126.247188,104.094635 126.247188,100.794618 C126.247188,99.1539849 126.066721,97.9282159 125.705782,97.1172743 C125.344843,96.3063328 124.775317,95.9008681 123.997188,95.9008681 C123.209684,95.9008681 122.637815,96.3063328 122.281563,97.1172743 C121.925312,97.9282159 121.747188,99.1539849 121.747188,100.794618 Z M141.178564,108.655556 L141.178564,99.3180556 C141.178564,98.1836749 141.042627,97.325871 140.770751,96.7446181 C140.498875,96.1633651 140.058254,95.8727431 139.448876,95.8727431 C138.642622,95.8727431 138.052003,96.2735203 137.677001,97.0750868 C137.301999,97.8766533 137.114501,99.2289835 137.114501,101.132118 L137.114501,108.655556 L133.373876,108.655556 L133.373876,92.9899306 L136.341064,92.9899306 L136.791064,95.0008681 L137.030126,95.0008681 C137.367628,94.2789894 137.850435,93.7141513 138.478564,93.3063368 C139.106692,92.8985223 139.842622,92.6946181 140.686376,92.6946181 C142.111383,92.6946181 143.177779,93.1821132 143.885595,94.1571181 C144.593411,95.1321229 144.947314,96.5571087 144.947314,98.4321181 L144.947314,108.655556 L141.178564,108.655556 Z M157.052126,104.071181 C157.052126,105.599313 156.604475,106.79227 155.709158,107.650087 C154.813841,108.507904 153.494323,108.936806 151.750564,108.936806 C150.203681,108.936806 148.924006,108.632121 147.911501,108.022743 L147.911501,104.774306 C148.427129,105.130557 149.029467,105.425867 149.718533,105.660243 C150.407599,105.894619 151.014624,106.011806 151.539626,106.011806 C152.120879,106.011806 152.563844,105.868838 152.868533,105.582899 C153.173222,105.29696 153.325564,104.91962 153.325564,104.450868 C153.325564,103.972741 153.166191,103.555557 152.847439,103.199306 C152.528687,102.843054 151.942756,102.407121 151.089626,101.891493 C149.955246,101.21649 149.141973,100.496966 148.649783,99.7328993 C148.157593,98.968833 147.911501,98.0664983 147.911501,97.0258681 C147.911501,95.6946114 148.368528,94.6399344 149.282595,93.8618056 C150.196662,93.0836767 151.450556,92.6946181 153.044314,92.6946181 C154.431821,92.6946181 155.73962,93.0602394 156.967751,93.7914931 L155.744314,96.4774306 C154.741184,95.9336778 153.859943,95.6618056 153.100564,95.6618056 C152.622437,95.6618056 152.263846,95.7883668 152.024783,96.0414931 C151.785719,96.2946193 151.666189,96.6039912 151.666189,96.9696181 C151.666189,97.3914952 151.813844,97.7664914 152.109158,98.0946181 C152.404472,98.4227447 152.955247,98.8305531 153.761501,99.3180556 C154.736506,99.9086835 155.420874,100.410241 155.814626,100.822743 C156.208378,101.235245 156.513063,101.70399 156.728689,102.228993 C156.944315,102.753996 157.052126,103.368052 157.052126,104.071181 Z" id="The-Right-Connection" fill="#FFFFFF"></path>
            </g>
        </g>
    </g>
</svg>